<?xml version="1.0" standalone="no"?>
<!DOCTYPE svg PUBLIC "-//W3C//DTD SVG 20010904//EN"
 "http://www.w3.org/TR/2001/REC-SVG-20010904/DTD/svg10.dtd">
<svg version="1.0" xmlns="http://www.w3.org/2000/svg"
 width="1000.000000pt" height="1000.000000pt" viewBox="0 0 1000.000000 1000.000000"
 preserveAspectRatio="xMidYMid meet">
<metadata>
Created by potrace 1.11, written by Peter Selinger 2001-2013
</metadata>
<g transform="translate(0.000000,1000.000000) scale(0.100000,-0.100000)"
fill="#000000" stroke="none">
<path d="M3578 9975 c-2 -2 -57 -5 -123 -9 -66 -3 -136 -8 -155 -10 -19 -3
-62 -7 -95 -11 -33 -3 -67 -8 -75 -10 -8 -2 -35 -6 -60 -9 -25 -4 -56 -8 -70
-11 -141 -27 -189 -38 -298 -67 -212 -55 -428 -136 -616 -230 -103 -51 -254
-140 -285 -167 -13 -11 -32 -23 -42 -26 -11 -4 -19 -10 -19 -15 0 -5 -8 -11
-17 -14 -10 -4 -32 -19 -50 -34 -17 -15 -51 -43 -75 -62 -46 -38 -225 -217
-271 -272 -31 -38 -172 -247 -172 -256 -1 -4 -11 -27 -24 -52 -13 -25 -24 -47
-23 -50 0 -3 -7 -13 -15 -22 -9 -10 -13 -18 -10 -18 3 0 -7 -31 -23 -70 -16
-38 -27 -70 -25 -70 3 0 -2 -17 -10 -37 -13 -35 -21 -65 -30 -118 -2 -11 -6
-35 -9 -52 -3 -18 -9 -48 -12 -65 -3 -18 -7 -73 -9 -123 -1 -49 -4 -94 -5
-100 -1 -5 -2 -12 0 -15 1 -3 3 -40 5 -82 2 -43 6 -94 9 -113 3 -19 8 -52 12
-72 6 -45 43 -202 51 -223 4 -8 8 -22 9 -30 2 -17 80 -216 94 -242 6 -10 10
-22 10 -28 0 -6 4 -16 10 -23 5 -7 41 -75 81 -152 39 -77 77 -147 85 -156 8
-8 14 -19 14 -23 0 -14 154 -243 233 -346 77 -100 287 -356 353 -430 174 -195
256 -282 424 -450 196 -195 259 -256 380 -362 36 -31 81 -71 100 -88 19 -18
80 -68 135 -112 55 -44 109 -88 121 -98 12 -9 57 -44 100 -76 43 -33 88 -67
98 -76 11 -10 28 -20 38 -24 10 -3 18 -9 18 -14 0 -5 16 -18 35 -30 20 -12 41
-27 48 -34 6 -6 41 -32 77 -56 36 -25 67 -47 70 -50 3 -3 41 -32 85 -63 44
-31 85 -60 90 -65 31 -24 178 -122 180 -120 3 4 13 102 20 208 12 173 16 303
20 622 l3 338 -31 22 c-28 19 -151 114 -197 151 -8 7 -37 30 -65 52 -27 22
-61 50 -75 61 -44 38 -185 158 -196 169 -6 5 -44 39 -84 75 -191 170 -521 514
-678 705 -31 39 -65 77 -74 86 -10 9 -18 20 -18 24 0 4 -20 30 -43 58 -127
150 -322 450 -419 642 -211 420 -181 670 114 951 116 110 330 243 490 304 39
15 32 13 88 30 25 8 48 19 52 25 4 5 8 7 8 4 0 -4 30 2 68 13 37 11 78 21 92
24 14 3 32 7 40 9 8 2 31 7 50 11 45 8 65 12 65 14 0 2 6 3 95 15 260 34 586
38 845 8 22 -2 60 -6 85 -8 25 -2 45 -5 45 -6 0 -1 9 -3 20 -4 35 -4 159 -25
185 -30 14 -4 34 -7 45 -9 11 -2 34 -6 50 -10 17 -3 41 -9 55 -12 14 -3 36 -7
50 -10 14 -3 30 -7 35 -8 6 -1 19 -5 30 -9 11 -3 31 -8 45 -11 14 -3 41 -10
60 -15 19 -5 51 -14 70 -20 64 -18 165 -49 190 -59 14 -5 27 -10 30 -10 15 -2
203 -70 281 -102 37 -16 69 -26 72 -24 2 3 10 -2 17 -11 7 -8 19 -15 26 -15 7
0 37 -11 66 -24 29 -13 76 -34 103 -46 118 -53 452 -224 498 -255 17 -12 13
-14 -30 -24 -26 -6 -55 -13 -63 -16 -28 -8 -315 -86 -330 -89 -59 -14 -424
-132 -585 -188 -223 -79 -553 -208 -710 -279 -22 -9 -107 -48 -189 -85 -82
-36 -175 -79 -205 -95 -31 -16 -61 -29 -67 -29 -7 0 -14 -3 -16 -7 -1 -5 -61
-37 -133 -73 -71 -35 -179 -91 -240 -124 -60 -33 -113 -60 -117 -58 -5 1 -8
-2 -8 -8 0 -5 -7 -10 -15 -10 -8 0 -15 -5 -15 -12 0 -6 -3 -8 -6 -5 -4 4 -19
-2 -33 -12 -14 -10 -46 -29 -71 -43 -104 -56 -120 -69 -110 -86 30 -55 417
-440 616 -614 l111 -97 194 96 c231 113 364 177 531 252 26 11 52 21 57 21 6
0 11 4 11 8 0 5 6 9 13 9 6 0 44 15 82 32 80 37 119 54 155 66 3 1 16 7 30 13
95 41 276 112 287 112 7 0 13 5 13 10 0 6 6 10 14 10 7 0 62 19 122 41 107 41
379 138 399 143 6 1 36 10 67 19 32 10 60 18 63 18 2 0 20 6 40 15 19 8 38 15
42 15 5 1 13 3 18 5 108 32 283 81 315 89 8 2 87 21 175 43 88 22 178 43 200
47 22 5 47 10 55 12 8 2 24 5 35 7 11 2 34 6 50 9 17 4 44 9 60 12 17 3 41 7
55 10 13 2 42 7 65 10 22 3 47 8 56 11 9 2 36 7 60 9 24 3 55 7 69 9 40 8 181
24 280 31 36 2 92 7 125 11 73 7 480 7 550 0 28 -3 82 -8 120 -11 39 -3 81 -8
95 -11 14 -3 39 -7 55 -9 29 -3 87 -13 129 -21 98 -19 106 -31 -129 202 -299
298 -536 513 -761 694 -209 168 -178 144 -383 296 -79 59 -221 158 -315 220
-94 63 -176 118 -183 124 -7 5 -15 10 -18 10 -4 0 -25 12 -48 28 -79 51 -377
223 -392 225 -5 1 -12 5 -15 8 -10 13 -451 229 -467 229 -6 0 -79 33 -116 51
-88 45 -628 227 -725 245 -20 4 -44 10 -52 14 -15 8 -304 74 -370 85 -19 3
-84 14 -145 25 -157 26 -270 40 -470 56 -77 6 -452 13 -457 9z"/>
<path d="M466 7219 c-5 -13 -24 -80 -86 -304 -18 -68 -88 -349 -96 -390 -4
-22 -15 -72 -29 -137 -10 -49 -45 -226 -55 -283 -5 -33 -12 -71 -15 -85 -9
-44 -14 -74 -21 -125 -3 -27 -8 -59 -10 -70 -2 -11 -6 -40 -9 -65 -3 -25 -8
-56 -10 -70 -2 -14 -7 -43 -9 -65 -3 -22 -10 -76 -15 -120 -6 -44 -13 -107
-16 -140 -3 -33 -7 -82 -10 -110 -34 -328 -39 -1045 -10 -1278 2 -15 7 -62 10
-105 4 -42 8 -88 10 -102 2 -14 7 -52 10 -85 4 -33 8 -67 10 -75 2 -8 7 -35
10 -60 3 -25 8 -56 10 -70 3 -14 7 -41 10 -60 14 -89 70 -346 97 -450 17 -63
31 -119 32 -125 24 -107 201 -615 245 -703 5 -10 22 -46 38 -82 66 -142 130
-270 186 -370 74 -130 177 -294 189 -298 4 -2 8 -8 8 -13 0 -8 58 -97 70 -109
3 -3 28 -34 55 -70 56 -74 126 -159 182 -222 64 -72 275 -280 337 -333 32 -28
64 -55 70 -60 6 -6 40 -32 76 -58 36 -27 72 -53 80 -60 17 -13 65 -46 92 -62
9 -5 48 -29 85 -51 268 -163 574 -276 833 -309 25 -3 61 -8 80 -10 45 -6 287
-6 320 -1 14 3 43 7 65 10 142 16 313 69 472 147 96 47 254 146 317 199 108
90 217 201 288 291 23 30 45 56 49 59 33 28 309 464 309 489 0 4 8 18 17 31
10 14 18 31 20 39 1 8 8 18 15 22 7 5 9 9 4 9 -4 0 -1 11 7 23 14 22 108 239
114 262 1 6 25 69 53 140 28 72 53 137 55 145 2 8 24 72 48 143 25 70 43 127
40 127 -3 0 -1 6 4 13 11 14 39 108 35 120 -1 4 2 7 7 7 5 0 12 17 16 37 4 21
13 57 22 81 8 25 16 52 18 61 2 9 13 48 25 86 11 39 23 81 25 95 7 36 11 53
18 70 4 8 9 26 11 40 3 14 12 52 20 86 8 34 17 73 20 87 2 15 7 30 9 34 3 5 8
26 12 48 12 71 14 79 34 165 10 47 21 103 25 125 3 22 7 49 9 60 3 11 8 42 11
68 4 27 10 59 12 70 2 12 7 47 9 77 3 30 10 82 16 114 5 33 8 65 5 72 -2 6 -1
15 4 20 4 5 11 41 15 79 4 39 8 86 10 105 10 89 15 128 20 170 3 26 7 68 10
95 2 28 6 73 9 100 3 28 7 79 11 115 3 36 7 89 10 118 3 28 3 52 -1 52 -3 0
-31 -12 -62 -27 -31 -15 -59 -27 -62 -28 -3 -1 -59 -28 -125 -61 -110 -55
-173 -88 -310 -164 -27 -16 -68 -38 -90 -50 -153 -84 -362 -205 -372 -214 -6
-6 -14 -38 -17 -71 -4 -33 -9 -73 -12 -90 -2 -16 -6 -46 -8 -65 -3 -19 -8 -53
-11 -74 -4 -22 -8 -54 -10 -70 -2 -17 -4 -31 -5 -31 -2 0 -4 -9 -5 -20 -1 -11
-10 -58 -18 -105 -9 -47 -19 -98 -21 -115 -14 -83 -50 -243 -91 -407 -25 -101
-48 -190 -50 -198 -10 -43 -82 -272 -121 -390 -88 -259 -199 -524 -306 -730
-56 -106 -132 -241 -150 -265 -5 -5 -35 -48 -68 -95 -72 -102 -137 -174 -207
-228 -52 -40 -145 -89 -187 -98 -38 -9 -51 -12 -51 -14 0 -9 -140 -12 -205 -5
-63 7 -153 27 -190 42 -19 8 -20 8 -53 17 -49 14 -281 133 -313 161 -6 6 -22
17 -34 25 -323 217 -630 594 -862 1060 -29 58 -52 107 -53 110 0 3 -11 27 -23
54 -12 27 -22 50 -22 52 0 2 -9 23 -19 47 -11 23 -34 80 -51 127 -17 47 -35
94 -40 105 -23 57 -111 361 -126 435 -3 14 -7 33 -10 42 -3 10 -7 30 -10 45
-3 16 -8 37 -11 48 -4 11 -8 28 -9 38 -1 9 -2 18 -4 20 -2 2 -4 13 -19 102 -6
33 -13 69 -15 80 -2 11 -7 45 -11 75 -4 30 -10 66 -12 80 -19 123 -39 335 -48
495 -2 39 -4 70 -5 70 -3 0 -7 260 -4 266 2 4 37 -27 76 -68 76 -79 263 -263
334 -330 257 -239 485 -436 715 -614 54 -42 111 -87 127 -100 16 -13 39 -31
51 -39 12 -8 68 -50 125 -92 57 -42 186 -133 287 -202 101 -69 189 -130 196
-136 7 -5 14 -10 17 -10 6 0 186 -115 203 -130 7 -5 14 -10 17 -10 2 0 55 -31
118 -68 62 -38 138 -82 168 -98 30 -16 57 -32 60 -35 3 -3 15 -11 27 -17 21
-12 23 -8 62 116 84 269 210 784 211 864 0 12 -65 61 -192 146 -271 181 -632
437 -682 484 -11 10 -23 18 -27 18 -4 0 -14 6 -21 13 -7 6 -47 38 -88 69 -42
32 -84 65 -95 75 -11 10 -36 29 -55 43 -19 13 -37 27 -40 30 -5 5 -92 77 -134
110 -18 14 -26 22 -95 83 -17 15 -33 27 -35 27 -2 0 -20 15 -39 33 -19 17 -56
50 -82 71 -25 22 -64 57 -86 78 -21 21 -39 36 -39 34 0 -14 -447 427 -570 563
-41 45 -88 97 -105 115 -55 58 -251 300 -334 411 -45 61 -88 118 -96 128 -8 9
-15 19 -15 21 0 3 -25 40 -55 84 -30 44 -55 85 -55 90 0 6 -4 12 -8 14 -8 3
-90 137 -133 218 -13 25 -26 47 -29 50 -10 10 -50 95 -50 107 0 6 -4 13 -8 15
-10 4 -112 233 -112 251 0 7 -4 17 -9 23 -5 5 -21 45 -36 89 -32 91 -33 93
-39 74z"/>
<path d="M7718 6885 c-2 -3 -33 -7 -69 -10 -35 -3 -73 -7 -84 -9 -12 -2 -48
-8 -80 -12 -33 -4 -62 -9 -65 -9 -5 -2 -111 -17 -145 -21 -11 -1 -20 -3 -20
-4 0 -1 -11 -3 -25 -5 -39 -5 -93 -14 -120 -20 -14 -3 -36 -7 -50 -10 -14 -2
-61 -11 -105 -20 -44 -9 -91 -19 -105 -22 -40 -8 -55 -11 -55 -13 0 -1 -13 -3
-30 -5 -16 -3 -86 -18 -155 -36 -143 -35 -156 -38 -190 -45 -14 -2 -32 -7 -40
-11 -8 -3 -22 -7 -30 -9 -8 -2 -71 -20 -140 -40 -69 -20 -129 -37 -135 -38 -5
-2 -50 -16 -100 -32 -49 -15 -94 -29 -100 -30 -5 0 -17 -4 -25 -7 -8 -3 -73
-27 -145 -52 -71 -25 -139 -50 -150 -55 -11 -5 -56 -23 -100 -40 -44 -17 -89
-35 -100 -39 -19 -9 -55 -23 -65 -26 -3 -1 -21 -8 -40 -17 -19 -8 -80 -34
-135 -58 -55 -23 -133 -57 -173 -76 -41 -19 -75 -34 -77 -34 -2 0 -68 -31
-147 -69 l-144 -68 3 -104 c7 -314 2 -800 -11 -962 -2 -21 1 -40 5 -43 5 -3
26 7 46 21 21 14 43 25 49 25 7 0 14 3 16 8 2 4 23 18 48 31 109 58 471 239
530 265 36 16 102 47 148 68 46 21 85 38 88 38 3 0 24 9 47 19 44 20 183 76
324 130 192 74 599 203 813 256 272 69 706 151 742 141 10 -2 20 -1 23 4 3 4
40 11 82 15 43 4 85 8 93 10 38 7 268 18 385 18 247 1 438 -24 545 -69 58 -25
128 -63 151 -81 55 -45 129 -127 129 -143 0 -6 5 -10 10 -10 6 0 10 -9 10 -20
0 -11 3 -20 8 -20 12 0 56 -105 49 -121 -1 -3 4 -13 12 -23 8 -9 11 -19 8 -23
-4 -3 -2 -13 3 -23 5 -9 12 -30 15 -46 2 -16 7 -40 10 -54 16 -68 18 -108 19
-265 0 -155 -4 -225 -19 -295 -2 -13 -7 -42 -11 -64 -3 -22 -8 -44 -11 -49 -3
-4 -6 -18 -8 -30 -2 -12 -6 -32 -9 -44 -3 -13 -8 -31 -10 -40 -3 -10 -19 -63
-37 -118 -18 -55 -33 -102 -34 -105 0 -3 -6 -14 -12 -25 -5 -11 -16 -38 -23
-60 -7 -22 -19 -49 -25 -60 -7 -11 -16 -31 -20 -44 -4 -13 -17 -40 -28 -59
-12 -20 -22 -41 -23 -47 -1 -5 -30 -59 -64 -120 -35 -60 -68 -119 -74 -130
-16 -29 -178 -269 -185 -275 -3 -3 -35 -43 -71 -90 -35 -47 -72 -94 -82 -105
-9 -11 -26 -31 -38 -45 -109 -128 -313 -338 -431 -445 -150 -135 -226 -198
-376 -311 -76 -57 -142 -107 -148 -112 -104 -80 -474 -314 -486 -306 -5 3 -2
21 6 40 7 18 12 34 9 34 -2 0 2 16 10 35 9 20 15 38 16 40 0 3 0 6 1 8 1 1 3
13 4 27 2 14 13 59 25 100 12 41 23 86 26 100 3 14 8 34 11 45 9 26 11 34 18
70 3 17 12 55 20 85 8 31 17 73 21 95 3 22 8 43 11 48 2 4 6 20 9 35 2 15 10
52 16 82 6 30 12 64 14 75 1 11 3 20 4 20 1 0 3 9 5 20 2 11 7 36 11 55 4 19
8 42 9 50 1 8 5 31 9 50 5 19 10 46 11 60 4 34 15 102 20 120 2 8 7 38 11 65
3 28 8 58 10 69 2 10 6 44 9 75 4 31 8 63 11 72 3 9 7 39 10 65 3 27 7 60 9
74 1 14 6 54 10 90 5 36 9 82 9 102 1 21 3 38 6 38 3 0 6 17 6 38 1 20 5 71 8
112 26 301 35 499 39 846 l4 231 -26 -4 c-52 -8 -66 -10 -66 -13 0 -1 -9 -3
-20 -5 -19 -2 -44 -8 -95 -20 -14 -3 -34 -8 -45 -10 -11 -2 -35 -8 -52 -13
-18 -6 -33 -8 -33 -5 0 3 -7 0 -15 -7 -8 -7 -15 -10 -15 -6 0 3 -12 1 -27 -5
-16 -6 -35 -12 -43 -13 -8 -1 -35 -8 -60 -15 -25 -7 -52 -14 -60 -16 -8 -2
-37 -11 -65 -20 -27 -10 -57 -19 -65 -20 -8 -2 -16 -4 -17 -5 -2 -2 -6 -3 -10
-4 -56 -15 -161 -51 -172 -60 -8 -6 -16 -10 -18 -8 -1 1 -4 2 -5 1 -2 0 -10
-2 -19 -4 -38 -7 -74 -31 -75 -50 -1 -11 -5 -74 -9 -140 -4 -66 -9 -136 -10
-155 -1 -19 -6 -81 -9 -138 -4 -56 -9 -110 -10 -120 -2 -9 -7 -55 -10 -102 -8
-95 -12 -134 -31 -295 -3 -22 -7 -65 -11 -95 -3 -30 -7 -68 -10 -85 -3 -16 -7
-46 -9 -65 -2 -19 -11 -84 -20 -145 -22 -148 -24 -162 -35 -220 -5 -27 -12
-70 -15 -95 -4 -25 -15 -89 -26 -143 -10 -53 -21 -110 -24 -125 -40 -226 -166
-737 -231 -930 -13 -40 -24 -77 -24 -82 0 -27 -200 -563 -212 -568 -4 -2 -8
-12 -8 -21 0 -10 -3 -21 -7 -25 -5 -4 -8 -11 -9 -14 -4 -36 -226 -472 -260
-512 -7 -8 -12 -17 -12 -20 2 -7 -157 -255 -172 -270 -3 -3 -25 -32 -49 -65
-25 -33 -48 -62 -51 -65 -4 -3 -11 -12 -16 -21 -9 -16 -93 -116 -124 -147 -12
-13 -12 -14 5 -9 11 3 58 15 105 27 126 32 296 77 370 99 36 10 103 31 150 44
90 27 355 113 380 124 8 3 20 7 25 9 18 4 210 74 230 83 11 5 70 28 130 52
233 89 534 224 738 328 50 26 126 65 167 86 41 22 77 41 80 44 3 3 21 14 40
23 174 86 699 425 834 539 12 9 67 54 124 98 140 111 139 111 293 251 154 142
356 348 459 470 25 30 59 70 76 89 104 123 284 363 284 381 0 5 4 10 8 10 7 0
101 144 169 258 44 73 152 279 198 376 50 107 151 359 161 404 4 15 9 32 13
37 3 6 6 15 8 20 1 6 18 69 38 140 19 72 37 139 39 150 2 11 9 42 15 68 6 26
13 65 16 85 3 20 7 46 9 57 2 12 7 45 11 75 3 30 9 69 11 85 3 17 7 125 9 240
4 245 -11 402 -56 595 -77 327 -240 628 -450 830 -167 161 -289 241 -554 361
-31 14 -178 61 -192 62 -7 0 -13 3 -13 7 0 4 -10 6 -22 5 -13 -1 -30 1 -38 5
-15 8 -53 16 -125 26 -22 3 -47 8 -55 10 -8 3 -42 8 -75 10 -33 3 -78 7 -100
10 -70 10 -526 11 -531 2 -3 -5 -11 -4 -18 1 -7 6 -15 9 -18 6z"/>
</g>
</svg>
