<?xml version="1.0" standalone="no"?>
<!DOCTYPE svg PUBLIC "-//W3C//DTD SVG 1.1//EN" "http://www.w3.org/Graphics/SVG/1.1/DTD/svg11.dtd" >
<svg xmlns="http://www.w3.org/2000/svg" xmlns:xlink="http://www.w3.org/1999/xlink" version="1.1">
<metadata></metadata>
<defs>
<font id="chaletmedium" horiz-adv-x="1379" >
<font-face units-per-em="2048" ascent="1638" descent="-410" />
<missing-glyph horiz-adv-x="636" />
<glyph unicode="&#xfb01;" horiz-adv-x="1133" d="M16 803v261h128q2 103 34.5 190.5t92.5 147.5t148 89t201 17v-244q-101 6 -150.5 -41.5t-51.5 -158.5h583v-1064h-273v803h-310v-803h-274v803h-128zM728 1181v254h273v-254h-273z" />
<glyph unicode="&#xfb02;" horiz-adv-x="1159" d="M16 803v261h128q2 103 34.5 190.5t92.5 147.5t148 89t201 17v-244q-101 6 -150.5 -41.5t-51.5 -158.5h192v-261h-192v-803h-274v803h-128zM760 0v1539h272v-1539h-272z" />
<glyph horiz-adv-x="0" />
<glyph unicode="&#xd;" horiz-adv-x="636" />
<glyph unicode=" "  horiz-adv-x="636" />
<glyph unicode="&#x09;" horiz-adv-x="636" />
<glyph unicode="&#xa0;" horiz-adv-x="636" />
<glyph unicode="!" horiz-adv-x="592" d="M162 0v271h272v-271h-272zM162 428v1007h272v-1007h-272z" />
<glyph unicode="&#x22;" horiz-adv-x="770" d="M69 1435h266l-47 -593h-174zM438 1435h265l-45 -593h-176z" />
<glyph unicode="#" horiz-adv-x="1112" d="M18 339l29 198h176l52 357h-176l29 196h178l37 269h205l-37 -269h203l36 269h207l-39 -269h176l-28 -196h-176l-53 -357h177l-29 -198h-178l-37 -262h-205l39 262h-205l-37 -262h-204l39 262h-179zM430 537h201l54 357h-203z" />
<glyph unicode="$" horiz-adv-x="1019" d="M58 513h236q0 -81 40.5 -127.5t99.5 -63.5v315q-57 12 -120.5 35t-116.5 62.5t-86.5 98.5t-33.5 146q0 146 95 245.5t262 115.5v120h135v-120q165 -20 259 -125.5t94 -267.5h-237q0 60 -30.5 104.5t-85.5 61.5v-278q74 -18 143.5 -42.5t122.5 -65t84.5 -101.5t31.5 -150 q0 -160 -100.5 -261t-281.5 -120v-120h-135v122q-76 8 -144.5 40.5t-120 84t-81.5 125t-30 166.5zM314 985q0 -42 28.5 -67.5t91.5 -48.5v246q-55 -12 -87.5 -45.5t-32.5 -84.5zM569 318q59 10 103 45t44 97q0 25 -5.5 45t-20.5 39t-44.5 34.5t-76.5 29.5v-290z" />
<glyph unicode="%" horiz-adv-x="1650" d="M45 1074q0 74 28 140.5t77 116t114.5 77t142.5 27.5t144 -27.5t115 -77t76 -116t28 -140.5q0 -75 -28 -140t-76 -114.5t-115 -77.5t-144 -28t-142.5 28t-114.5 77.5t-77 114.5t-28 140zM252 1074q0 -69 45.5 -117.5t109.5 -48.5q67 0 112.5 48.5t45.5 117.5 q0 68 -45.5 116.5t-112.5 48.5q-64 0 -109.5 -49t-45.5 -116zM320 0l789 1435h221l-788 -1435h-222zM881 362q0 74 28 140.5t75.5 115t114 77.5t144.5 29q77 0 143 -29t114.5 -77.5t76.5 -115t28 -140.5q0 -75 -28 -140.5t-76.5 -115.5t-114.5 -78t-143 -28q-78 0 -144.5 28 t-114 78t-75.5 116t-28 140zM1086 362q0 -69 45.5 -117t111.5 -48q64 0 110.5 48.5t46.5 116.5t-46.5 116.5t-110.5 48.5q-66 0 -111.5 -48.5t-45.5 -116.5z" />
<glyph unicode="&#x26;" horiz-adv-x="1364" d="M69 430q0 75 23.5 138t63 114.5t90 92t101.5 71.5l-12 15q-49 61 -74.5 129.5t-25.5 134.5q0 75 27.5 138t75 109.5t112.5 73.5t144 27q77 0 139.5 -26t109.5 -72.5t72.5 -109.5t25.5 -138q0 -112 -67 -195.5t-167 -141.5l259 -322q16 53 22.5 117t2.5 139h244 q6 -132 -18.5 -254.5t-81.5 -214.5l203 -255h-316l-62 77q-73 -50 -163 -76t-207 -26q-110 0 -204 34t-166 95.5t-111.5 144t-39.5 181.5zM325 430q0 -45 20.5 -83.5t55.5 -67.5t83.5 -45.5t105.5 -16.5q69 0 120.5 13.5t94.5 40.5l-315 395q-95 -56 -130 -116t-35 -120z M486 1133q0 -43 17.5 -77t46.5 -69l15 -16q130 76 130 173q0 46 -28 73.5t-75 27.5q-46 0 -76 -31t-30 -81z" />
<glyph unicode="'" horiz-adv-x="402" d="M69 1435h264l-45 -593h-176z" />
<glyph unicode="(" horiz-adv-x="671" d="M83 697q0 132 25.5 265.5t72 255.5t113 228.5t144.5 187.5h217q-146 -192 -230 -431t-84 -506t84 -505.5t230 -431.5h-217q-78 80 -144.5 187t-113 229t-72 254.5t-25.5 266.5z" />
<glyph unicode=")" horiz-adv-x="671" d="M18 -240q147 192 230 431t83 506t-82.5 505.5t-230.5 431.5h215q79 -81 145 -187.5t112.5 -228.5t73 -255.5t26.5 -265.5q0 -134 -26.5 -266.5t-73 -254.5t-112.5 -229t-145 -187h-215z" />
<glyph unicode="*" horiz-adv-x="808" d="M56 1048v160l217 -6l-113 190l138 79l105 -194l106 194l138 -79l-114 -190l219 6v-160l-219 4l114 -185l-138 -81l-106 193l-105 -193l-136 81l111 185z" />
<glyph unicode="+" horiz-adv-x="1083" d="M77 444v255h328v337h274v-337h328v-255h-328v-339h-274v339h-328z" />
<glyph unicode="," horiz-adv-x="483" d="M95 0v292h294v-327q0 -141 -74.5 -216.5t-192.5 -87.5v128q64 14 96 60t32 114v37h-155z" />
<glyph unicode="-" horiz-adv-x="683" d="M62 446v255h560v-255h-560z" />
<glyph unicode="." horiz-adv-x="483" d="M95 0v292h294v-292h-294z" />
<glyph unicode="/" horiz-adv-x="696" d="M4 0l436 1539h284l-436 -1539h-284z" />
<glyph unicode="0" horiz-adv-x="1209" d="M73 705q0 203 46.5 343t122.5 226.5t171.5 124.5t192.5 38q95 0 190.5 -38t171.5 -124.5t122.5 -226.5t46.5 -343t-46.5 -342.5t-122.5 -226.5t-171.5 -125t-190.5 -38q-97 0 -192.5 38t-171.5 125t-122.5 227t-46.5 342zM343 705q0 -54 8.5 -135.5t35.5 -158 t78.5 -131.5t140.5 -55q87 0 138.5 55t78.5 131.5t35.5 158t8.5 135.5t-8.5 136.5t-35.5 159.5t-78.5 132t-138.5 55q-89 0 -140.5 -55t-78.5 -132t-35.5 -159t-8.5 -137z" />
<glyph unicode="1" horiz-adv-x="868" d="M91 1001v178q47 0 94.5 15.5t86 47t64.5 80t33 113.5h219v-1435h-274v1001h-223z" />
<glyph unicode="2" horiz-adv-x="1164" d="M69 0v122q0 120 35.5 212t97 162.5t139 124.5t160.5 97q99 54 158 94t89 74t38 64.5t8 60.5q0 73 -47.5 126t-156.5 53q-107 0 -167.5 -73t-60.5 -184h-275q0 99 32.5 190t95 162t156 113.5t217.5 42.5t214 -37.5t148.5 -99t88 -139t29.5 -156.5q0 -101 -33.5 -174 t-90 -131.5t-135.5 -107t-172 -97.5q-110 -60 -184 -119.5t-80 -124.5h691v-255h-995z" />
<glyph unicode="3" horiz-adv-x="1153" d="M49 460h273q2 -111 66.5 -172t178.5 -61q118 0 183 58t65 147q0 182 -234 182h-91v238h56q129 0 178.5 46.5t49.5 119.5q0 79 -50.5 125.5t-146.5 46.5q-56 0 -95.5 -18t-66 -48t-39 -68t-12.5 -77h-273q0 93 33.5 177.5t95.5 148t152 100t205 36.5q120 0 208 -33.5 t145 -90t83.5 -127.5t26.5 -144q0 -93 -45.5 -170t-136.5 -121q62 -18 106.5 -52t72 -78t39.5 -94.5t12 -102.5q0 -85 -33 -166.5t-98 -144.5t-162.5 -102.5t-225.5 -39.5q-129 0 -225 38.5t-161 103.5t-98 153t-36 190z" />
<glyph unicode="4" horiz-adv-x="1145" d="M49 292v241l563 902h319v-902h153v-241h-153v-292h-254v292h-628zM320 533h357v570z" />
<glyph unicode="5" horiz-adv-x="1137" d="M56 399h275q16 -79 77.5 -122.5t152.5 -43.5q43 0 86.5 14t77 42.5t54 73t20.5 107.5q0 107 -63 175.5t-165 68.5q-67 0 -125.5 -32.5t-98.5 -91.5l-246 65l85 780h797v-254h-586l-35 -300q51 33 110 50.5t118 17.5q101 0 190 -36t153 -101.5t101.5 -155t37.5 -194.5 q0 -103 -39.5 -192.5t-108 -155t-161 -102.5t-202.5 -37q-111 0 -200.5 32t-156 89.5t-104.5 134.5t-44 168z" />
<glyph unicode="6" horiz-adv-x="1164" d="M73 647q0 188 36.5 338t107.5 254.5t173 159.5t230 55q192 0 315.5 -109.5t152.5 -298.5h-275q-12 60 -59 108t-134 48q-120 0 -187 -100.5t-84 -255.5q54 44 125.5 67.5t145.5 23.5q105 0 194.5 -35t154.5 -97.5t102.5 -150t37.5 -192.5t-37.5 -194.5t-104.5 -155 t-159 -101.5t-202 -36q-97 0 -192.5 35t-171.5 115t-122.5 208.5t-46.5 313.5zM375 456q0 -50 16 -93t47.5 -75.5t73.5 -51.5t94 -19t94 19t73.5 51.5t47.5 75.5t16 93q0 49 -16 92.5t-47.5 76.5t-73.5 51.5t-94 18.5t-94 -18.5t-73.5 -51.5t-47.5 -76.5t-16 -92.5z" />
<glyph unicode="7" horiz-adv-x="1066" d="M35 1181v254h997v-239q-246 -201 -374.5 -506t-128.5 -690h-272q0 182 27.5 353.5t82.5 323.5t137 279.5t189 224.5h-658z" />
<glyph unicode="8" horiz-adv-x="1151" d="M64 414q0 114 56 207t153 151q-71 53 -110 129t-39 167q0 82 34 153.5t94 123t143 80.5t180 29t179.5 -29t144 -80.5t95.5 -123t34 -153.5q0 -91 -39.5 -166t-109.5 -128q99 -58 154 -150t55 -210q0 -93 -39.5 -173.5t-107.5 -140t-162 -92.5t-204 -33t-203 33 t-161.5 92.5t-107.5 139.5t-39 174zM329 426q0 -55 22 -94.5t56.5 -66.5t79 -39.5t88.5 -12.5q45 0 89.5 12.5t80 39.5t57 66.5t21.5 94.5q0 56 -21.5 95.5t-55.5 65t-80 38t-91 12.5q-46 0 -90.5 -12.5t-78 -38t-55.5 -65t-22 -95.5zM383 1050q0 -41 16.5 -73t43.5 -53.5 t62 -33t70 -11.5q37 0 71.5 11.5t62 33t44.5 53.5t17 73q0 44 -18 76t-45.5 52t-62 30t-69.5 10q-36 0 -69.5 -10t-61.5 -30t-44.5 -52t-16.5 -76z" />
<glyph unicode="9" horiz-adv-x="1159" d="M56 962q0 107 37 197t104.5 155.5t159 102.5t202.5 37q101 0 195 -35t167.5 -115t119 -208t47.5 -314q2 -190 -29 -340t-97 -253.5t-168.5 -158.5t-241.5 -55q-181 0 -303.5 96.5t-159.5 255.5h294q16 -41 58.5 -71.5t112.5 -30.5q137 0 198 97.5t69 273.5 q-43 -54 -121 -85t-163 -31q-99 0 -186.5 35t-153 98.5t-103.5 152t-38 196.5zM327 962q0 -52 16.5 -96.5t47.5 -79t73.5 -53.5t94.5 -19q51 0 93.5 19t74 53.5t47.5 79t16 96.5q0 51 -16 98t-47.5 81t-74 53.5t-93.5 19.5q-52 0 -94.5 -19.5t-73.5 -53.5t-47.5 -80.5 t-16.5 -98.5z" />
<glyph unicode=":" horiz-adv-x="506" d="M107 0v292h294v-292h-294zM107 736v292h294v-292h-294z" />
<glyph unicode=";" horiz-adv-x="506" d="M107 0v292h294v-327q0 -141 -74.5 -216.5t-192.5 -87.5v128q64 14 95.5 60t31.5 114v37h-154zM107 736v292h294v-292h-294z" />
<glyph unicode="&#x3c;" horiz-adv-x="928" d="M64 434v271l801 371v-282l-532 -223l532 -226v-278z" />
<glyph unicode="=" horiz-adv-x="1044" d="M77 213v253h891v-253h-891zM77 677v254h891v-254h-891z" />
<glyph unicode="&#x3e;" horiz-adv-x="930" d="M64 67v278l532 226l-532 223v282l803 -371v-271z" />
<glyph unicode="?" horiz-adv-x="1141" d="M69 1001q0 103 33.5 189.5t99 148t156 96t207.5 34.5q114 0 203.5 -31t152 -87t94 -134t31.5 -169q0 -63 -18.5 -115t-51.5 -95.5t-76.5 -80.5t-94.5 -70q-73 -48 -102.5 -96.5t-29.5 -114.5v-48h-251v48q0 81 20 141t52.5 105.5t72 78t80.5 62.5q71 49 100 90.5t29 94.5 q0 75 -56 122.5t-155 47.5q-113 0 -169.5 -62t-56.5 -155h-270zM410 0v271h273v-271h-273z" />
<glyph unicode="@" horiz-adv-x="1540" d="M64 720q0 160 58 296t157.5 237t233.5 158.5t288 57.5q126 0 248 -38.5t217 -115t153 -192.5t58 -273q0 -101 -31 -191t-86 -157.5t-128.5 -106.5t-155.5 -39q-73 0 -126.5 31t-82.5 81q-44 -56 -98.5 -86.5t-115.5 -30.5q-63 0 -114 30.5t-81 85t-35 129.5t19 162 q21 70 59.5 129.5t86 104t103 69.5t110.5 25q49 0 88.5 -23t61.5 -64l17 53h186q-10 -29 -30.5 -94.5t-41.5 -134.5q-26 -81 -52 -172q-16 -53 2 -80t52 -27q39 0 73.5 25t60 67.5t40.5 96t15 111.5q0 114 -41.5 197.5t-109.5 136.5t-151 79t-170 26q-110 0 -207 -44.5 t-170 -121.5t-114 -179.5t-41 -217.5q0 -120 42.5 -222.5t117 -177t175.5 -116.5t219 -42q128 0 234 43t172 111h246q-105 -168 -266 -255.5t-386 -87.5q-159 0 -297.5 56t-241 156.5t-161.5 237t-59 297.5zM629.5 598.5q15.5 -50.5 63.5 -50.5q47 0 95.5 50.5t72.5 123.5 q23 73 7 123.5t-63 50.5q-45 0 -94 -48.5t-74 -125.5q-23 -73 -7.5 -123.5z" />
<glyph unicode="A" d="M12 0l501 1435h345l501 -1435h-289l-97 288h-574l-97 -288h-290zM484 542h402l-201 589z" />
<glyph unicode="B" horiz-adv-x="1346" d="M132 0v1435h662q217 0 324.5 -103t107.5 -286q0 -91 -37 -162t-103 -118q93 -48 145 -134t52 -210q0 -97 -31.5 -174.5t-90 -132.5t-142.5 -85t-188 -30h-699zM405 250h389q39 0 76.5 8.5t67.5 30t47.5 56t17.5 87.5q0 91 -54.5 139.5t-160.5 48.5h-383v-370zM405 871 h389q71 0 119.5 43t48.5 116t-44.5 115.5t-123.5 42.5h-389v-317z" />
<glyph unicode="C" horiz-adv-x="1463" d="M69 724q0 158 53.5 294t146.5 237t220 159.5t275 58.5q122 0 226 -33t187.5 -95t145 -151t94.5 -199h-296q-47 99 -140 163t-217 64q-89 0 -166 -39t-134 -107.5t-90 -159.5t-33 -192q0 -103 33 -194.5t90 -159.5t134 -107.5t166 -39.5q124 0 217 66.5t140 166.5h294 q-35 -111 -96.5 -199.5t-145 -151t-187 -96.5t-222.5 -34q-147 0 -274.5 58t-220.5 159.5t-146.5 238t-53.5 293.5z" />
<glyph unicode="D" d="M132 0v1435h532q148 0 268 -49.5t204 -142.5t129.5 -226t45.5 -299t-45.5 -298t-130.5 -225.5t-204.5 -144t-266.5 -50.5h-532zM405 255h259q122 0 195.5 48t114 118.5t52.5 151t12 147.5q0 79 -15.5 160.5t-57 148.5t-113.5 109.5t-188 42.5h-259v-926z" />
<glyph unicode="E" horiz-adv-x="1257" d="M132 0v1435h1049v-254h-776v-306h663v-255h-663v-365h791v-255h-1064z" />
<glyph unicode="F" horiz-adv-x="1212" d="M132 0v1435h1026v-254h-753v-342h647v-253h-647v-586h-273z" />
<glyph unicode="G" horiz-adv-x="1546" d="M69 722q0 158 53.5 294t147.5 237t221 159.5t275 58.5q120 0 224 -33t187.5 -94t145 -150t94.5 -201h-294q-20 47 -55.5 88.5t-82 73t-102.5 49.5t-117 18q-89 0 -167 -40.5t-135 -108.5t-90 -159t-33 -192t34.5 -192.5t93 -159.5t138.5 -107.5t171 -39.5q76 0 143.5 25 t121 68.5t93 101.5t58.5 126h-389v255h639v-799h-252v156q-73 -87 -182.5 -134t-243.5 -47q-147 0 -274.5 58t-221.5 158.5t-147.5 237t-53.5 293.5z" />
<glyph unicode="H" horiz-adv-x="1427" d="M132 0v1435h275v-574h613v574h273v-1435h-273v606h-613v-606h-275z" />
<glyph unicode="I" horiz-adv-x="547" d="M138 0v1435h274v-1435h-274z" />
<glyph unicode="J" horiz-adv-x="1091" d="M35 442v100h273v-108q0 -37 11.5 -71t35.5 -62t61 -44.5t87 -16.5q51 0 88.5 16.5t61.5 44.5t35 62t11 71v1001h274v-993q0 -99 -33.5 -184.5t-94.5 -149t-148 -99.5t-194 -36t-193.5 36t-147.5 99.5t-94 149t-33 184.5z" />
<glyph unicode="K" horiz-adv-x="1340" d="M132 0v1435h275v-579l540 579h377l-584 -600l608 -835h-355l-445 637l-141 -147v-490h-275z" />
<glyph unicode="L" horiz-adv-x="1155" d="M132 0v1435h275v-1180h714v-255h-989z" />
<glyph unicode="M" horiz-adv-x="1676" d="M132 0v1435h405l300 -1075l300 1075h408v-1435h-268v1052l-292 -1052h-292l-292 1052v-1052h-269z" />
<glyph unicode="N" horiz-adv-x="1451" d="M132 0v1435h330l582 -1021v1021h276v-1435h-329l-586 1022v-1022h-273z" />
<glyph unicode="O" horiz-adv-x="1540" d="M69 724q0 156 52.5 292t145.5 237t222 159.5t283 58.5q151 0 280 -58.5t222.5 -159.5t146 -237.5t52.5 -291.5q0 -157 -52.5 -293.5t-146 -238t-223 -159.5t-279.5 -58q-154 0 -283 58t-222 159.5t-145.5 238t-52.5 293.5zM343 724q0 -101 33.5 -190.5t91 -156.5 t136.5 -105.5t168 -38.5t166.5 38.5t135 105.5t91 156t33.5 191q0 99 -33.5 188t-91 156t-135 105.5t-166.5 38.5t-168 -38.5t-136.5 -105.5t-91 -156t-33.5 -188z" />
<glyph unicode="P" horiz-adv-x="1261" d="M132 0v1435h604q112 0 201 -32.5t149 -93t92 -146t32 -190.5q0 -99 -33 -184.5t-94 -146.5t-148 -95t-193 -34h-337v-513h-273zM405 764h329q95 0 149 49.5t54 159.5t-54 159t-149 49h-329v-417z" />
<glyph unicode="Q" horiz-adv-x="1538" d="M69 724q0 156 52.5 292t145.5 237t222 159.5t283 58.5q151 0 279 -58.5t221.5 -159.5t146 -237.5t52.5 -291.5q0 -159 -52.5 -295.5t-145.5 -238.5l202 -215h-310l-73 77q-147 -77 -320 -77q-154 0 -283 58t-222 159.5t-145.5 238t-52.5 293.5zM341 724 q0 -101 34.5 -190.5t92 -156.5t136.5 -105.5t168 -38.5q63 0 128 24l-213 225h310l85 -91q53 67 84.5 151.5t31.5 181.5q0 99 -34.5 188t-92 156t-135.5 105.5t-164 38.5q-89 0 -168 -38.5t-136.5 -105.5t-92 -156t-34.5 -188z" />
<glyph unicode="R" d="M132 0v1435h656q225 0 359 -112.5t134 -315.5q0 -124 -54 -203.5t-147 -122.5q76 -42 116.5 -117.5t40.5 -188.5v-201q0 -40 10 -91.5t23 -82.5h-277q-12 29 -20.5 68t-8.5 90v219q0 93 -44.5 135t-141.5 42h-373v-554h-273zM405 801h389q12 0 47.5 5t72.5 24.5t65 58 t28 104.5q0 18 -3 49.5t-23.5 62t-65 53.5t-127.5 23h-383v-380z" />
<glyph unicode="S" horiz-adv-x="1338" d="M77 476h272q0 -64 29 -111t75 -77.5t101.5 -46.5t109.5 -16q57 0 115 10.5t104 34.5t74 60t28 88q0 33 -16 62t-55 53t-104.5 44.5t-164.5 38.5t-195 46.5t-170.5 77t-121 124t-46.5 190.5q0 93 39 170t111.5 132t173.5 86t228 31q142 0 246 -41.5t171 -109t100 -152 t33 -169.5h-273q0 93 -73.5 155t-203.5 62q-54 0 -104.5 -10t-90 -31t-62 -52t-22.5 -73q0 -74 75 -110t241 -69q128 -26 230.5 -57.5t175 -81t111.5 -124.5t39 -184q0 -103 -41 -186.5t-118.5 -143t-187 -90.5t-246.5 -31q-105 0 -211 30t-189.5 91.5t-135 155t-51.5 224.5 z" />
<glyph unicode="T" horiz-adv-x="1107" d="M33 1181v254h1043v-254h-385v-1181h-273v1181h-385z" />
<glyph unicode="U" horiz-adv-x="1344" d="M120 569v866h273v-874q0 -321 280 -321q278 0 278 321v874h275v-866q0 -137 -36 -247.5t-105 -187t-172.5 -118t-239.5 -41.5q-137 0 -239.5 41.5t-173 118t-105.5 187t-35 247.5z" />
<glyph unicode="V" horiz-adv-x="1248" d="M6 1435h290l328 -1106l327 1106h290l-469 -1435h-294z" />
<glyph unicode="W" horiz-adv-x="1840" d="M6 1435h290l246 -1044l216 1044h330l213 -1044l248 1044h288l-391 -1435h-302l-222 1082l-223 -1082h-300z" />
<glyph unicode="X" horiz-adv-x="1259" d="M4 0l464 734l-443 701h322l284 -469l283 469h325l-443 -701l461 -734h-322l-304 503l-302 -503h-325z" />
<glyph unicode="Y" horiz-adv-x="1230" d="M-4 1435h308l310 -614l313 614h308l-483 -885v-550h-274v550z" />
<glyph unicode="Z" horiz-adv-x="1226" d="M52 0v244l769 937h-744v254h1077v-241l-769 -939h788v-255h-1121z" />
<glyph unicode="[" horiz-adv-x="655" d="M132 -250v1944h497v-223h-252v-1498h252v-223h-497z" />
<glyph unicode="\" horiz-adv-x="698" d="M-27 1539h286l434 -1539h-283z" />
<glyph unicode="]" horiz-adv-x="696" d="M47 -27h263v1498h-263v223h518v-1944h-518v223z" />
<glyph unicode="^" horiz-adv-x="1145" d="M69 533l369 902h269l371 -902h-273l-232 632l-232 -632h-272z" />
<glyph unicode="_" horiz-adv-x="1666" d="M-4 -144h1676v-255h-1676v255z" />
<glyph unicode="`" horiz-adv-x="862" d="M154 1496h304l191 -292h-201z" />
<glyph unicode="a" horiz-adv-x="1202" d="M64 325q0 89 35 147.5t95.5 95t139 54t167.5 25.5q67 6 122.5 15t96 22t63 33.5t22.5 54.5q0 41 -51 71t-144 30q-37 0 -74 -8.5t-69.5 -25t-57 -42t-32.5 -59.5h-274q10 77 51 141t106 111.5t152 74.5t192 27q107 0 184 -21t128.5 -54.5t82.5 -75t47 -82t20 -76t4 -55.5 v-554q0 -40 10 -91.5t21 -82.5h-251q-16 37 -27 99q-53 -56 -134 -87.5t-192 -31.5q-85 0 -162.5 21.5t-138 63.5t-96.5 107.5t-36 152.5zM339 322q0 -45 48.5 -73t131.5 -28q62 0 116 10.5t94.5 34.5t63 60t22.5 88v99q-43 -29 -108.5 -43t-149.5 -26 q-101 -10 -159.5 -35.5t-58.5 -86.5z" />
<glyph unicode="b" horiz-adv-x="1279" d="M124 0v1539h275v-575q60 59 139.5 91.5t173.5 32.5q105 0 197 -42.5t160 -117t108.5 -177t40.5 -220.5t-40.5 -219t-108.5 -175.5t-160 -117t-197 -42.5q-97 0 -180.5 35t-144.5 102v-114h-263zM399 529q0 -61 21.5 -116t59 -95.5t87 -64.5t106.5 -24q55 0 104.5 23 t87 63.5t59 95.5t21.5 118q0 64 -21.5 121t-59 97.5t-87 64t-104.5 23.5q-56 0 -106 -23.5t-87.5 -65t-59 -97t-21.5 -120.5z" />
<glyph unicode="c" horiz-adv-x="1180" d="M62 531q0 116 41 218.5t114 178t174 120t221 44.5q195 0 330.5 -101t182.5 -284h-292q-29 54 -87.5 94.5t-133.5 40.5q-55 0 -104.5 -25t-87 -67.5t-59.5 -99t-22 -121.5q0 -61 22 -117t59.5 -98.5t87 -66.5t104.5 -24q77 0 137 40.5t86 96.5h292q-47 -182 -183.5 -283.5 t-331.5 -101.5q-120 0 -221 43.5t-174 119t-114 177t-41 216.5z" />
<glyph unicode="d" horiz-adv-x="1285" d="M62 531q0 118 40 220.5t110 177t162 117t195 42.5q93 0 172.5 -32t141.5 -92v575h273v-1539h-260v114q-64 -67 -145.5 -102t-181.5 -35q-103 0 -195 42.5t-162 117t-110 176t-40 218.5zM337 529q0 -63 22 -118t59.5 -95.5t86.5 -63.5t105 -23t106 24t86.5 64.5t58.5 95.5 t22 116q0 64 -22 120t-58.5 97.5t-86.5 65t-106 23.5t-105 -23.5t-86.5 -64t-59.5 -97t-22 -121.5z" />
<glyph unicode="e" horiz-adv-x="1209" d="M62 531q0 116 43 218.5t118 178t174.5 120t210.5 44.5q118 0 222.5 -44.5t179.5 -130.5q74 -85 111 -209q27 -90 27 -198q0 -41 -4 -84h-805q28 -99 99 -155t168 -56q69 0 129.5 30t95.5 94h292q-47 -163 -180.5 -263.5t-334.5 -100.5q-112 0 -211 43.5t-174 119 t-118 177t-43 216.5zM343 649h530q-26 93 -97 148t-170 55q-93 0 -163 -55t-100 -148z" />
<glyph unicode="f" horiz-adv-x="649" d="M16 819v243h128q2 103 33.5 190.5t92.5 148.5t149 90q62 21 137 21q31 0 64 -4v-257q-16 1 -30 1q-77 0 -120 -36q-52 -43 -52 -154h192v-243h-192v-819h-274v819h-128z" />
<glyph unicode="g" horiz-adv-x="1265" d="M62 531q0 118 40 220.5t110 177t162 117t195 42.5q99 0 180.5 -35t146.5 -102v115h260v-1012q0 -133 -38 -239.5t-109.5 -180.5t-174 -114.5t-230.5 -40.5q-95 0 -182 26.5t-156 75t-117 117.5t-62 154h300q12 -32 37.5 -54.5t56 -37.5t62.5 -21t61 -6q144 0 211.5 87 t67.5 229v52q-62 -60 -141.5 -92t-172.5 -32q-103 0 -195 42.5t-162 117t-110 176t-40 218.5zM337 529q0 -63 22 -118t59.5 -95.5t86.5 -63.5t105 -23t106 24t86.5 64.5t58.5 95.5t22 116q0 64 -22 120t-58.5 97.5t-86.5 65t-106 23.5t-105 -23.5t-86.5 -64t-59.5 -97 t-22 -121.5z" />
<glyph unicode="h" horiz-adv-x="1192" d="M124 0v1539h275v-530q51 39 112.5 61t131.5 22q97 0 178 -34t138 -95t88 -148t31 -193v-622h-273v622q0 23 -6.5 58.5t-27.5 67.5t-59.5 54.5t-105.5 22.5q-93 0 -150 -55.5t-57 -147.5v-622h-275z" />
<glyph unicode="i" horiz-adv-x="533" d="M130 0v1066h273v-1066h-273zM130 1181v254h273v-254h-273z" />
<glyph unicode="j" horiz-adv-x="493" d="M-52 -227q19 -2 35 -2q57 0 89 21q40 28 40 109v1165h275v-1196q0 -105 -31 -177t-88 -112.5t-138 -52.5q-37 -6 -79 -6q-49 0 -103 8v243zM112 1181v254h275v-254h-275z" />
<glyph unicode="k" horiz-adv-x="1153" d="M124 0v1539h273v-860l349 387h377l-397 -417l420 -649h-347l-266 448l-136 -142v-306h-273z" />
<glyph unicode="l" horiz-adv-x="531" d="M130 0v1539h273v-1539h-273z" />
<glyph unicode="m" horiz-adv-x="1871" d="M124 0v1066h263v-104q49 59 118.5 94.5t156.5 35.5q99 0 180.5 -39t138.5 -112q57 71 139 111t185 40q107 0 191.5 -34t142 -96t87.5 -148t30 -192v-622h-273v622q0 23 -6 59.5t-27 70.5t-60.5 57.5t-104.5 23.5q-93 0 -150 -59.5t-57 -151.5v-622h-275v622 q0 23 -6.5 59.5t-26.5 70.5t-58.5 57.5t-107.5 23.5q-91 0 -148 -59.5t-57 -151.5v-622h-275z" />
<glyph unicode="n" horiz-adv-x="1192" d="M124 0v1066h261v-104q51 59 119.5 94.5t155.5 35.5q92 0 170 -34t132 -95t84 -148t30 -193v-622h-273v622q0 23 -6.5 59.5t-26.5 70.5t-58.5 57.5t-107.5 23.5q-93 0 -150 -59.5t-57 -151.5v-622h-273z" />
<glyph unicode="o" horiz-adv-x="1196" d="M62 531q0 120 42 222.5t115 178t170 118t209 42.5t209 -42.5t170 -118t115.5 -178t42.5 -222.5t-42.5 -221t-115.5 -175.5t-170.5 -117t-208.5 -42.5q-112 0 -209 42.5t-170 117t-115 176t-42 220.5zM335 529q0 -68 21 -124t55.5 -96t83.5 -62t103 -22q53 0 100.5 22 t84 62t57.5 96.5t21 123.5q0 69 -21 127t-57.5 99t-84 64t-100.5 23q-54 0 -103 -23t-83.5 -64t-55.5 -99t-21 -127z" />
<glyph unicode="p" horiz-adv-x="1279" d="M124 -474v1540h263v-113q61 64 144 100.5t181 36.5q105 0 197 -42.5t160 -117t108.5 -176t40.5 -219.5t-40.5 -220t-108.5 -177.5t-160 -118t-197 -42.5q-93 0 -172.5 33t-140.5 93v-577h-275zM399 535q0 -61 21.5 -117t59 -97.5t87 -65.5t106.5 -24q55 0 104.5 23 t87 64.5t59 96t21.5 120.5q0 64 -21.5 119t-59 95.5t-87 63t-104.5 22.5q-56 0 -106 -23.5t-87.5 -64t-59 -95t-21.5 -117.5z" />
<glyph unicode="q" horiz-adv-x="1281" d="M62 535q0 118 40 219.5t110 176t162 117t195 42.5q99 0 180.5 -36t146.5 -101v113h260v-1540h-273v577q-62 -60 -141.5 -93t-172.5 -33q-103 0 -195 42.5t-162 118t-110 178t-40 219.5zM337 535q0 -66 22 -120.5t59.5 -96t86.5 -64.5t105 -23t106 24t86.5 65.5t58.5 97.5 t22 117q0 62 -22 117t-58.5 95.5t-86.5 64t-106 23.5t-105 -22.5t-86.5 -63t-59.5 -95t-22 -119.5z" />
<glyph unicode="r" horiz-adv-x="752" d="M124 0v1066h261v-106q66 80 156 112q58 20 120 20q33 0 67 -6v-265q-36 4 -69 4q-43 0 -80 -7q-66 -13 -113 -63q-44 -45 -56.5 -106t-12.5 -126v-523h-273z" />
<glyph unicode="s" horiz-adv-x="1087" d="M52 347h277q14 -35 40 -57.5t57.5 -38.5t65 -22t65.5 -6q82 0 136.5 24t54.5 71q0 23 -8 40t-32.5 29t-68 23.5t-114.5 21.5q-73 10 -150 28t-143 53t-108.5 92t-42.5 145q0 62 27.5 124.5t83.5 110t142 77.5t201 30q91 0 170 -24t140 -67.5t100.5 -105.5t51.5 -135h-283 q-12 37 -57 62.5t-122 25.5q-95 0 -136 -28t-41 -56q0 -42 56 -60.5t155 -34.5q99 -17 182.5 -39t143.5 -58.5t94.5 -93t34.5 -143.5q0 -78 -35.5 -144.5t-97.5 -114t-147.5 -74.5t-186.5 -27t-188 26t-154 74.5t-109 117t-54 154.5z" />
<glyph unicode="t" horiz-adv-x="653" d="M16 823v243h128v270h274v-270h192v-243h-192v-377q0 -112 50 -157q45 -40 130 -40q11 0 24 1v-248q-37 -4 -71 -4q-75 0 -135 18q-88 26 -148.5 87t-92 148.5t-31.5 196.5v375h-128z" />
<glyph unicode="u" horiz-adv-x="1190" d="M116 442v624h273v-624q0 -23 6 -58t26.5 -68.5t60 -58t106.5 -24.5q93 0 149.5 60.5t56.5 148.5v624h274v-1066h-261v97q-49 -58 -118 -90t-154 -32q-95 0 -172 34t-132 95.5t-85 147t-30 190.5z" />
<glyph unicode="v" horiz-adv-x="1101" d="M2 1066h286l264 -795l267 795h282l-402 -1066h-294z" />
<glyph unicode="w" horiz-adv-x="1621" d="M4 1066h290l186 -746l195 746h272l194 -746l187 746h290l-333 -1066h-282l-192 705l-193 -705h-283z" />
<glyph unicode="x" horiz-adv-x="1060" d="M0 0l373 550l-350 516h310l198 -326l197 326h310l-349 -516l373 -550h-310l-221 362l-223 -362h-308z" />
<glyph unicode="y" horiz-adv-x="1099" d="M2 1066h290l260 -770l255 770h291l-471 -1261q-39 -103 -89 -165t-111 -94t-135 -40q-38 -3 -78 -3q-38 0 -78 3v248q21 -2 39 -2q28 0 51 4q39 6 67.5 22.5t50.5 47t39 75.5l31 81z" />
<glyph unicode="z" horiz-adv-x="1019" d="M43 0v235l563 584h-539v247h888v-245l-552 -575h572v-246h-932z" />
<glyph unicode="{" horiz-adv-x="690" d="M39 614v197q89 0 145 51.5t56 175.5v259q0 199 109 286t296 67v-200q-84 6 -121.5 -41.5t-37.5 -123.5v-271q0 -227 -157 -300q79 -39 118 -113t39 -189v-272q0 -76 37.5 -123.5t121.5 -41.5v-202q-187 -16 -296 70t-109 287v259q0 124 -56 174.5t-145 50.5z" />
<glyph unicode="|" horiz-adv-x="553" d="M140 0v1539h274v-1539h-274z" />
<glyph unicode="}" horiz-adv-x="690" d="M47 -25q83 -6 120.5 41.5t37.5 123.5v272q0 116 39.5 189.5t117.5 112.5q-158 73 -157 300v271q0 76 -37.5 123.5t-120.5 41.5v200q188 19 295.5 -67.5t107.5 -285.5v-259q0 -124 56.5 -175.5t144.5 -51.5v-197q-88 0 -144.5 -50.5t-56.5 -174.5v-259 q0 -199 -108.5 -286.5t-294.5 -70.5v202z" />
<glyph unicode="~" horiz-adv-x="890" d="M83 1255q6 46 22.5 90.5t44.5 78.5t67.5 55t90.5 21q46 0 85 -12.5t74.5 -26t66.5 -26t60 -12.5q35 0 56 19.5t33 67.5h126q-6 -48 -22.5 -92t-43.5 -78.5t-64.5 -55t-84.5 -20.5q-46 0 -86 12.5t-75.5 26t-67.5 25.5t-63 12q-73 0 -93 -85h-126z" />
<glyph unicode="&#xa1;" horiz-adv-x="592" d="M162 0v1009h272v-1009h-272zM162 1167v270h272v-270h-272z" />
<glyph unicode="&#xa2;" horiz-adv-x="1105" d="M62 540q0 119 37 218.5t104.5 174t161 116t202.5 41.5q23 0 44.5 -2t43.5 -6l69 223h141l-81 -263q97 -47 164.5 -134t95.5 -203h-250q-14 35 -35 61t-45 47l-181 -590q10 -2 19 -3t19 -1q78 0 138.5 44.5t89.5 121.5h247q-20 -89 -62.5 -161t-104.5 -124.5t-140.5 -81 t-171.5 -28.5q-28 0 -52.5 3t-48.5 7l-69 -227h-140l82 270q-128 67 -202.5 197.5t-74.5 299.5zM310 540q0 -82 27 -150t75 -108l176 576h-17q-56 0 -104.5 -23.5t-83 -66t-54 -101.5t-19.5 -127z" />
<glyph unicode="&#xa3;" horiz-adv-x="1153" d="M89 579v181h134q-33 49 -58 110t-25 148q0 95 35.5 175t98.5 136.5t151 87.5t193 31q107 0 197.5 -34t154.5 -94.5t99.5 -144t35.5 -184.5h-257q0 95 -59 157t-171 62q-105 0 -163 -54.5t-58 -137.5q0 -39 9.5 -72.5t23.5 -63.5t33 -60t36 -62h302v-181h-244q2 -16 3 -32 t-1 -34q0 -73 -32.5 -142t-100.5 -125l2 -2q129 60 308 -4q95 -35 157 -16.5t116 72.5l126 -199q-59 -58 -120.5 -85.5t-120.5 -32t-116.5 9t-108.5 36.5q-117 50 -211 42.5t-203 -87.5l-150 210q97 51 160.5 133t63.5 176q0 23 -2 42.5t-9 37.5h-229z" />
<glyph unicode="&#xa4;" horiz-adv-x="1356" d="M52 438v156h122q-2 16 -3 34.5t-1 37.5q0 12 1 24.5t1 27.5h-120v153h149q31 99 89.5 183.5t139.5 144.5t179 94.5t208 34.5q300 0 480 -205l-116 -186q-54 79 -145 127.5t-211 48.5q-128 0 -225 -66t-147 -176h688l-95 -153h-634q-2 -12 -2 -25.5v-26.5q0 -19 1 -37.5 t3 -34.5h557l-96 -156h-415q47 -103 135 -163t199 -60q99 0 167.5 34.5t118.5 104.5h256q-70 -166 -206.5 -260t-335.5 -94q-103 0 -196 32t-168.5 90t-133.5 138.5t-89 177.5h-155z" />
<glyph unicode="&#xa5;" horiz-adv-x="1242" d="M2 1435h308l310 -614l313 614h308l-258 -473h165v-153h-248l-116 -211h333v-156h-357v-442h-276v442h-358v156h334l-117 211h-248v153h166z" />
<glyph unicode="&#xa7;" horiz-adv-x="1089" d="M69 722q0 69 32.5 134.5t111.5 114.5q-61 70 -61 187q2 69 30.5 126.5t81 101t127.5 67.5t166 24q88 0 160.5 -26t123.5 -71.5t76.5 -109.5t25.5 -141h-240q2 64 -44.5 96t-104.5 32q-31 0 -59.5 -6t-51.5 -18.5t-37.5 -31t-14.5 -43.5q0 -45 39.5 -65.5t132.5 -38.5 q82 -16 165 -34.5t148 -52.5t105.5 -90t40.5 -147q0 -72 -30.5 -133.5t-99.5 -104.5q29 -35 45 -79t16 -107q0 -73 -27.5 -133.5t-80.5 -105t-130.5 -70.5t-179.5 -26q-97 0 -174 28t-132 77.5t-85 117t-30 145.5h237q0 -59 51 -105t138 -46t133.5 29t46.5 75q0 23 -8.5 40 t-34.5 31t-71 26t-120 25q-91 14 -167.5 37t-132.5 59t-86.5 86.5t-30.5 125.5zM306 755q0 -53 62 -82.5t184 -45.5q30 -4 57.5 -10.5t56.5 -10.5q51 10 87.5 33t36.5 64q0 60 -70.5 84t-198.5 46q-25 4 -48 9.5t-45 11.5q-59 -16 -90.5 -42t-31.5 -57z" />
<glyph unicode="&#xa8;" horiz-adv-x="862" d="M122 1245v224h227v-224h-227zM511 1245v224h227v-224h-227z" />
<glyph unicode="&#xa9;" horiz-adv-x="1619" d="M62 724q0 156 59 291t160.5 236t237.5 160.5t292 59.5t291 -59.5t236 -160.5t160 -236.5t59 -290.5t-59 -291.5t-160 -238t-236.5 -160.5t-290.5 -59q-156 0 -292 59t-237.5 160.5t-160.5 238t-59 291.5zM267 724q0 -116 42 -216.5t117 -175.5t174 -118.5t211 -43.5 t211 43.5t172.5 118.5t115.5 175.5t42 216.5q0 114 -42 215t-115.5 177t-173 119.5t-210.5 43.5q-112 0 -211 -43.5t-174 -119.5t-117 -177.5t-42 -214.5zM428 724q0 83 29 155t81 126t122 85t151 31q136 0 233 -79.5t131 -206.5h-211q-24 44 -61.5 70t-91.5 26 q-37 0 -70.5 -16.5t-57 -44.5t-38 -65t-14.5 -81q0 -43 14.5 -80.5t38 -65.5t57 -44.5t70.5 -16.5q54 0 91 26t60 67h211q-34 -124 -131 -204.5t-231 -80.5q-81 0 -151 31t-122 86t-81 127t-29 155z" />
<glyph unicode="&#xaa;" horiz-adv-x="789" d="M64 1011q0 54 21.5 89t57 57t83 33.5t101.5 15.5q79 6 130.5 19.5t51.5 53.5q0 27 -31.5 44t-84.5 17q-44 0 -87 -19.5t-54 -61.5h-163q12 93 93 152.5t207 59.5q97 0 153 -27t83.5 -62.5t35.5 -72t8 -56.5v-333q0 -23 6 -54t12 -49h-152q-4 12 -8 26.5t-6 33.5 q-33 -36 -81.5 -54t-117.5 -18q-49 0 -96.5 12t-83 38t-57 65.5t-21.5 90.5zM229 1009q0 -27 29.5 -43.5t80.5 -16.5q73 0 124.5 27t51.5 90v57q-27 -16 -66 -24.5t-89 -14.5q-60 -6 -95.5 -23t-35.5 -52z" />
<glyph unicode="&#xab;" horiz-adv-x="874" d="M47 517v205l328 281v-217l-207 -166l207 -170v-217zM486 517v205l327 281v-217l-207 -166l207 -170v-217z" />
<glyph unicode="&#xac;" horiz-adv-x="462" d="M95 584v270h274v-270h-274z" />
<glyph unicode="&#xad;" horiz-adv-x="683" d="M62 446v255h560v-255h-560z" />
<glyph unicode="&#xae;" horiz-adv-x="1619" d="M62 724q0 156 59 291t160.5 236t237.5 160.5t292 59.5t291 -59.5t236 -160.5t160 -236t59 -291q0 -155 -59 -291.5t-160 -238t-236.5 -160.5t-290.5 -59q-156 0 -292 59t-237.5 160.5t-160.5 238t-59 291.5zM267 724q0 -116 42 -216.5t117 -175.5t174 -118.5t211 -43.5 t211 43.5t172.5 118.5t115.5 175.5t42 216.5q0 114 -42 215t-115.5 177t-173 119.5t-210.5 43.5q-112 0 -211 -43.5t-174 -119.5t-117 -177.5t-42 -214.5zM529 362v763h365q134 0 204.5 -74t70.5 -199q0 -78 -37.5 -136t-99.5 -89l143 -265h-228l-112 224h-103v-224h-203z M732 766h149q41 0 61 23.5t20 62.5q0 42 -20 64.5t-61 22.5h-149v-173z" />
<glyph unicode="&#xaf;" horiz-adv-x="833" d="M83 1231v180h667v-180h-667z" />
<glyph unicode="&#xb0;" horiz-adv-x="762" d="M64 1115q0 64 25 122t67.5 101.5t100 68t124.5 24.5q66 0 124 -24.5t101 -68t68 -101.5t25 -122q0 -67 -25 -124.5t-68 -101t-101.5 -68.5t-123.5 -25q-67 0 -124.5 25t-100 68.5t-67.5 101t-25 124.5zM221 1115q0 -33 12.5 -63t34.5 -51.5t50.5 -34.5t62.5 -13 q33 0 62 13t50.5 34.5t34 51.5t12.5 63q0 67 -47 113.5t-112 46.5q-67 0 -113.5 -47t-46.5 -113z" />
<glyph unicode="&#xb1;" horiz-adv-x="1747" d="M16 803v261h128q2 103 34.5 190.5t92.5 147.5t148 89t201 17v-244q-101 6 -150.5 -41.5t-51.5 -158.5h314q2 103 34.5 190.5t92 147.5t147.5 89t202 17v-244q-101 6 -151 -41.5t-52 -158.5h193v-261h-193v-803h-273v803h-314v-803h-274v803h-128zM1346 0v1539h274v-1539 h-274z" />
<glyph unicode="&#xb2;" horiz-adv-x="756" d="M69 546v74q0 75 22.5 132t59.5 100.5t86 76.5t100 62q62 33 98.5 58t55 45.5t23.5 39t5 39.5q0 43 -29.5 76.5t-98.5 33.5q-67 0 -104 -44.5t-37 -115.5h-169q0 62 19.5 119t59 100.5t97 70t134.5 26.5t132.5 -23.5t92.5 -61.5t55 -86t18 -97q0 -62 -21 -108.5t-56 -82 t-83.5 -65t-106.5 -61.5q-68 -35 -114.5 -72.5t-50.5 -78.5h430v-157h-618z" />
<glyph unicode="&#xb3;" horiz-adv-x="760" d="M49 829h172q0 -66 39.5 -104t110.5 -38q72 0 113 36.5t41 89.5q0 114 -144 114h-56v147h33q78 0 110.5 28.5t32.5 72.5q0 49 -31.5 78.5t-90.5 29.5q-69 0 -101 -40.5t-32 -90.5h-169q0 58 19.5 111t59 92t95 61.5t128.5 22.5q74 0 128 -21.5t90 -55.5t52.5 -78.5 t16.5 -87.5q0 -60 -29 -107t-85 -75q79 -23 111 -81t32 -122q0 -51 -21 -102t-61 -90.5t-101.5 -64.5t-138.5 -25q-81 0 -140 24t-99.5 64.5t-61 95.5t-23.5 116z" />
<glyph unicode="&#xb4;" horiz-adv-x="862" d="M192 1204l193 292h306l-298 -292h-201z" />
<glyph unicode="&#xb5;" horiz-adv-x="462" d="M95 584v270h274v-270h-274z" />
<glyph unicode="&#xb6;" horiz-adv-x="1263" d="M52 973q0 105 31 190.5t91.5 146t149 93t201.5 32.5h606v-1435h-215v1229h-154v-1229h-216v513h-27q-105 0 -192 34t-148 95t-94 146t-33 185z" />
<glyph unicode="&#xb7;" horiz-adv-x="462" d="M95 584v270h274v-270h-274z" />
<glyph unicode="&#xb8;" horiz-adv-x="636" d="M83 -375l35 75q56 -31 105.5 -41t86.5 -6t58 22.5t21 47.5q0 28 -15.5 45t-40.5 23t-53 4t-53 -14l-79 47l85 172h136l-85 -124q37 16 84.5 17.5t89 -15t69 -54t27.5 -95.5q0 -45 -19.5 -79.5t-52 -58t-75.5 -36.5t-89 -13q-77 0 -133.5 24t-101.5 59z" />
<glyph unicode="&#xb9;" horiz-adv-x="531" d="M71 1167v110q29 0 59 10t53.5 28.5t39 48.5t19.5 71h137v-889h-170v621h-138z" />
<glyph unicode="&#xba;" horiz-adv-x="766" d="M62 1135q0 71 26 133t69.5 106.5t102 70.5t125.5 26q66 0 125 -26t102 -70.5t68 -106.5t25 -133q0 -72 -25 -132t-68 -105.5t-102.5 -70t-124.5 -24.5q-67 0 -125.5 24.5t-102 70t-69.5 106t-26 131.5zM227 1135q0 -83 45.5 -133.5t112.5 -50.5q66 0 111.5 50.5 t45.5 133.5t-46 135t-111 52q-67 0 -112.5 -52t-45.5 -135z" />
<glyph unicode="&#xbb;" horiz-adv-x="872" d="M60 233v217l207 170l-207 166v217l327 -281v-205zM499 233v217l206 170l-206 166v217l326 -281v-205z" />
<glyph unicode="&#xbc;" horiz-adv-x="1538" d="M71 1167v110q59 2 111.5 38.5t59.5 119.5h137v-889h-170v621h-138zM213 -25l841 1460h175l-842 -1460h-174zM835 182v149l351 559h196v-559h95v-149h-95v-182h-160v182h-387zM1003 331h219v352z" />
<glyph unicode="&#xbd;" horiz-adv-x="1646" d="M71 1167v110q59 2 110.5 38.5t60.5 119.5h135v-889h-168v621h-138zM211 -25l843 1460h172l-841 -1460h-174zM957 0v77q0 75 23 131.5t60.5 99.5t86 76.5t99.5 59.5q62 34 98.5 59.5t55 46.5t24 39.5t5.5 37.5q0 46 -30.5 77.5t-95.5 31.5q-67 0 -105.5 -44.5 t-38.5 -112.5h-168q0 59 19 116t58.5 100.5t97.5 71t135 27.5q76 0 132 -24t93 -62t55 -85.5t18 -98.5q0 -61 -21 -106.5t-56 -82t-83.5 -65.5t-107.5 -60q-69 -37 -115 -74t-50 -78h431v-158h-620z" />
<glyph unicode="&#xbe;" horiz-adv-x="1753" d="M49 829h170q0 -66 40.5 -104t111.5 -38q72 0 112 36.5t40 89.5q0 114 -144 114h-57v147h34q80 0 111.5 28.5t31.5 72.5q0 49 -31.5 78.5t-90.5 29.5q-69 0 -101 -40.5t-32 -90.5h-169q0 58 20.5 111t58.5 92t94 61.5t129 22.5q74 0 128 -21.5t90 -55.5t52.5 -78.5 t16.5 -87.5q0 -60 -29 -107t-85 -75q79 -23 111 -81t32 -122q0 -51 -21 -102t-61 -90.5t-100 -64.5t-140 -25q-81 0 -140 24t-99.5 64.5t-61.5 95.5t-21 116zM428 -25l842 1460h174l-842 -1460h-174zM1050 182v149l350 559h197v-559h95v-149h-95v-182h-158v182h-389z M1218 331h221v352z" />
<glyph unicode="&#xbf;" horiz-adv-x="1141" d="M95 395q0 64 18.5 116t51 95t77 79.5t95.5 72.5q71 47 101 95.5t30 114.5v48h252v-48q0 -81 -19.5 -140.5t-53 -105t-74 -79t-81.5 -62.5q-69 -50 -97.5 -91.5t-28.5 -94.5q0 -75 55 -122.5t154 -47.5q112 0 170 62t58 155h269q0 -103 -34.5 -189.5t-98.5 -149 t-156 -96.5t-208 -34q-114 0 -202.5 32t-150.5 87.5t-94.5 133.5t-32.5 169zM458 1173v271h274v-271h-274z" />
<glyph unicode="&#xc0;" d="M12 0l501 1435h345l501 -1435h-289l-97 288h-574l-97 -288h-290zM327 1847h306l192 -292h-201zM484 542h402l-201 589z" />
<glyph unicode="&#xc1;" d="M12 0l501 1435h345l501 -1435h-289l-97 288h-574l-97 -288h-290zM484 542h402l-201 589zM546 1555l192 292h306l-298 -292h-200z" />
<glyph unicode="&#xc2;" d="M12 0l501 1435h345l501 -1435h-289l-97 288h-574l-97 -288h-290zM333 1555l230 294h246l227 -294h-223l-128 172l-126 -172h-226zM484 542h402l-201 589z" />
<glyph unicode="&#xc3;" d="M12 0l501 1435h345l501 -1435h-289l-97 288h-574l-97 -288h-290zM322 1570q6 45 23 90t45 79t67.5 54.5t90.5 20.5q46 0 85.5 -12t74 -26t66 -26.5t59.5 -12.5q36 0 56.5 20t32.5 67h126q-6 -47 -22.5 -91.5t-43.5 -78.5t-64 -54.5t-85 -20.5q-45 0 -85.5 12t-75.5 25.5 t-67 25.5t-63 12q-72 0 -94 -84h-126zM484 542h402l-201 589z" />
<glyph unicode="&#xc4;" d="M12 0l501 1435h345l501 -1435h-289l-97 288h-574l-97 -288h-290zM364 1579v229h254v-229h-254zM484 542h402l-201 589zM752 1579v229h255v-229h-255z" />
<glyph unicode="&#xc5;" d="M12 0l501 1435h345l501 -1435h-289l-97 288h-574l-97 -288h-290zM466 1758q0 46 17.5 85.5t47.5 69t69 47.5t85 18q45 0 85.5 -18t69.5 -47.5t46.5 -69t17.5 -85.5q0 -93 -63 -156t-156 -63q-46 0 -85 18t-69 46.5t-47.5 69t-17.5 85.5zM484 542h402l-201 589zM588 1758 q0 -41 27.5 -71.5t69.5 -30.5q41 0 70 30.5t29 71.5q0 42 -29 71.5t-70 29.5q-42 0 -69.5 -29.5t-27.5 -71.5z" />
<glyph unicode="&#xc6;" horiz-adv-x="1995" d="M12 0l507 1435h1401v-254h-776v-306h658v-255h-658v-365h790v-255h-1065v288h-470l-99 -288h-288zM482 542h387v639h-166z" />
<glyph unicode="&#xc7;" horiz-adv-x="1463" d="M69 724q0 158 53.5 294t146.5 237t220 159.5t275 58.5q122 0 226 -33t187.5 -95t145 -151t94.5 -199h-296q-51 99 -142 161t-215 62q-89 0 -166 -39.5t-134 -106.5t-90 -157t-33 -191t33 -191.5t90 -158.5t134 -107.5t166 -39.5q124 0 215 64.5t142 164.5h294 q-33 -108 -93.5 -196t-142 -150.5t-181.5 -97.5t-216 -37l-68 -97q39 16 86.5 17.5t89 -16t69.5 -55t28 -95.5q0 -45 -20 -79.5t-53 -58t-76.5 -36.5t-89.5 -13q-74 0 -130.5 24t-102.5 59l35 75q56 -31 105.5 -41t86 -5t58 23.5t21.5 45.5q0 28 -15.5 45t-40.5 23t-52.5 4 t-52.5 -14l-81 47l76 156q-126 20 -233.5 84t-185.5 162.5t-122.5 224.5t-44.5 269z" />
<glyph unicode="&#xc8;" horiz-adv-x="1257" d="M132 0v1435h1049v-254h-776v-306h663v-255h-663v-365h791v-255h-1064zM271 1847h306l193 -292h-201z" />
<glyph unicode="&#xc9;" horiz-adv-x="1257" d="M132 0v1435h1049v-254h-776v-306h663v-255h-663v-365h791v-255h-1064zM546 1555l192 292h306l-298 -292h-200z" />
<glyph unicode="&#xca;" horiz-adv-x="1257" d="M132 0v1435h1049v-254h-776v-306h663v-255h-663v-365h791v-255h-1064zM333 1555l230 294h246l227 -294h-223l-128 172l-126 -172h-226z" />
<glyph unicode="&#xcb;" horiz-adv-x="1257" d="M132 0v1435h1049v-254h-776v-306h663v-255h-663v-365h791v-255h-1064zM364 1579v229h254v-229h-254zM752 1579v229h255v-229h-255z" />
<glyph unicode="&#xcc;" horiz-adv-x="547" d="M-95 1847h306l192 -292h-200zM138 0v1435h274v-1435h-274z" />
<glyph unicode="&#xcd;" horiz-adv-x="547" d="M138 0v1435h274v-1435h-274zM156 1555l191 292h306l-297 -292h-200z" />
<glyph unicode="&#xce;" horiz-adv-x="547" d="M-77 1555l231 294h245l228 -294h-224l-128 172l-127 -172h-225zM138 0v1435h274v-1435h-274z" />
<glyph unicode="&#xcf;" horiz-adv-x="547" d="M-39 1579v229h254v-229h-254zM138 0v1435h274v-1435h-274zM349 1579v229h255v-229h-255z" />
<glyph unicode="&#xd0;" horiz-adv-x="1429" d="M31 664v254h151v517h532q149 0 269 -49.5t203.5 -142.5t129 -226t45.5 -299t-45.5 -298t-130 -225.5t-204.5 -144t-267 -50.5h-532v664h-151zM458 255h256q122 0 195.5 48t114 118.5t52.5 151t12 147.5q0 79 -15.5 160.5t-56.5 148.5t-114 109.5t-188 42.5h-256v-263h336 v-254h-336v-409z" />
<glyph unicode="&#xd1;" horiz-adv-x="1451" d="M132 0v1435h330l582 -1021v1021h276v-1435h-329l-586 1022v-1022h-273zM391 1609q10 107 69 177.5t148 70.5q43 0 77.5 -14.5t65.5 -31.5t59.5 -32t62.5 -15q41 0 65 26t37 61h113q-12 -107 -72.5 -177.5t-146.5 -70.5q-44 0 -77.5 14.5t-65 32.5t-60.5 32t-62 14 q-41 0 -65 -26t-36 -61h-112z" />
<glyph unicode="&#xd2;" horiz-adv-x="1540" d="M69 724q0 156 52.5 292t145.5 237t222 159.5t283 58.5q151 0 280 -58.5t222.5 -159.5t146 -237.5t52.5 -291.5q0 -157 -52.5 -293.5t-146 -238t-223 -159.5t-279.5 -58q-154 0 -283 58t-222 159.5t-145.5 238t-52.5 293.5zM343 724q0 -101 33.5 -190.5t91 -156.5 t136.5 -105.5t168 -38.5t166.5 38.5t135 105.5t91 156t33.5 191q0 99 -33.5 188t-91 156t-135 105.5t-166.5 38.5t-168 -38.5t-136.5 -105.5t-91 -156t-33.5 -188zM364 1847h307l192 -292h-201z" />
<glyph unicode="&#xd3;" horiz-adv-x="1540" d="M69 724q0 156 52.5 292t145.5 237t222 159.5t283 58.5q151 0 280 -58.5t222.5 -159.5t146 -237.5t52.5 -291.5q0 -157 -52.5 -293.5t-146 -238t-223 -159.5t-279.5 -58q-154 0 -283 58t-222 159.5t-145.5 238t-52.5 293.5zM343 724q0 -101 33.5 -190.5t91 -156.5 t136.5 -105.5t168 -38.5t166.5 38.5t135 105.5t91 156t33.5 191q0 99 -33.5 188t-91 156t-135 105.5t-166.5 38.5t-168 -38.5t-136.5 -105.5t-91 -156t-33.5 -188zM660 1555l192 292h306l-297 -292h-201z" />
<glyph unicode="&#xd4;" horiz-adv-x="1540" d="M69 724q0 156 52.5 292t145.5 237t222 159.5t283 58.5q151 0 280 -58.5t222.5 -159.5t146 -237.5t52.5 -291.5q0 -157 -52.5 -293.5t-146 -238t-223 -159.5t-279.5 -58q-154 0 -283 58t-222 159.5t-145.5 238t-52.5 293.5zM343 724q0 -101 33.5 -190.5t91 -156.5 t136.5 -105.5t168 -38.5t166.5 38.5t135 105.5t91 156t33.5 191q0 99 -33.5 188t-91 156t-135 105.5t-166.5 38.5t-168 -38.5t-136.5 -105.5t-91 -156t-33.5 -188zM420 1555l229 294h247l227 -294h-223l-128 172l-127 -172h-225z" />
<glyph unicode="&#xd5;" horiz-adv-x="1540" d="M69 724q0 156 52.5 292t145.5 237t222 159.5t283 58.5q151 0 280 -58.5t222.5 -159.5t146 -237.5t52.5 -291.5q0 -157 -52.5 -293.5t-146 -238t-223 -159.5t-279.5 -58q-154 0 -283 58t-222 159.5t-145.5 238t-52.5 293.5zM343 724q0 -101 33.5 -190.5t91 -156.5 t136.5 -105.5t168 -38.5t166.5 38.5t135 105.5t91 156t33.5 191q0 99 -33.5 188t-91 156t-135 105.5t-166.5 38.5t-168 -38.5t-136.5 -105.5t-91 -156t-33.5 -188zM428 1570q6 45 23 90t44.5 79t67 54.5t90.5 20.5q46 0 85.5 -12t74.5 -26t66 -26.5t60 -12.5q36 0 56.5 20 t32.5 67h126q-6 -47 -22.5 -91.5t-43 -78.5t-64 -54.5t-85.5 -20.5q-45 0 -85.5 12t-76 25.5t-67 25.5t-63.5 12q-72 0 -93 -84h-126z" />
<glyph unicode="&#xd6;" horiz-adv-x="1540" d="M69 724q0 156 52.5 292t145.5 237t222 159.5t283 58.5q151 0 280 -58.5t222.5 -159.5t146 -237.5t52.5 -291.5q0 -157 -52.5 -293.5t-146 -238t-223 -159.5t-279.5 -58q-154 0 -283 58t-222 159.5t-145.5 238t-52.5 293.5zM343 724q0 -101 33.5 -190.5t91 -156.5 t136.5 -105.5t168 -38.5t166.5 38.5t135 105.5t91 156t33.5 191q0 99 -33.5 188t-91 156t-135 105.5t-166.5 38.5t-168 -38.5t-136.5 -105.5t-91 -156t-33.5 -188zM458 1579v229h254v-229h-254zM846 1579v229h255v-229h-255z" />
<glyph unicode="&#xd7;" horiz-adv-x="1062" d="M20 154l369 369l-369 367l144 142l367 -368l369 368l142 -142l-367 -367l367 -369l-142 -144l-369 369l-367 -369z" />
<glyph unicode="&#xd8;" horiz-adv-x="1540" d="M69 103l148 152q-71 94 -109.5 213.5t-38.5 255.5q0 156 52.5 292t145.5 237t222 159.5t283 58.5q138 0 256 -47.5t211 -134.5l143 144l108 -105l-154 -153q67 -95 102 -209t35 -242q0 -157 -52.5 -293.5t-146 -238t-223 -159.5t-279.5 -58q-135 0 -248.5 44.5 t-205.5 122.5l-142 -146zM343 724q0 -148 71 -271l632 641q-55 55 -125.5 86.5t-148.5 31.5q-89 0 -168 -38.5t-136.5 -105.5t-91 -156t-33.5 -188zM511 337q54 -47 120 -75.5t141 -28.5q89 0 166.5 38.5t135 105.5t91 156t33.5 191q0 139 -61 249z" />
<glyph unicode="&#xd9;" horiz-adv-x="1344" d="M120 569v866h273v-874q0 -321 280 -321q278 0 278 321v874h275v-866q0 -137 -36 -247.5t-105 -187t-172.5 -118t-239.5 -41.5q-137 0 -239.5 41.5t-173 118t-105.5 187t-35 247.5zM282 1847h306l192 -292h-201z" />
<glyph unicode="&#xda;" horiz-adv-x="1344" d="M120 569v866h273v-874q0 -321 280 -321q278 0 278 321v874h275v-866q0 -137 -36 -247.5t-105 -187t-172.5 -118t-239.5 -41.5q-137 0 -239.5 41.5t-173 118t-105.5 187t-35 247.5zM579 1555l193 292h306l-298 -292h-201z" />
<glyph unicode="&#xdb;" horiz-adv-x="1344" d="M120 569v866h273v-874q0 -321 280 -321q278 0 278 321v874h275v-866q0 -137 -36 -247.5t-105 -187t-172.5 -118t-239.5 -41.5q-137 0 -239.5 41.5t-173 118t-105.5 187t-35 247.5zM325 1555l229 294h247l227 -294h-223l-128 172l-127 -172h-225z" />
<glyph unicode="&#xdc;" horiz-adv-x="1344" d="M120 569v866h273v-874q0 -321 280 -321q278 0 278 321v874h275v-866q0 -137 -36 -247.5t-105 -187t-172.5 -118t-239.5 -41.5q-137 0 -239.5 41.5t-173 118t-105.5 187t-35 247.5zM364 1579v229h254v-229h-254zM752 1579v229h255v-229h-255z" />
<glyph unicode="&#xdd;" horiz-adv-x="1230" d="M-4 1435h308l308 -608h6l309 608h308l-485 -885v-550h-272v550zM525 1547l193 300h296l-290 -300h-199z" />
<glyph unicode="&#xde;" horiz-adv-x="1261" d="M132 0v1435h273v-186h331q112 0 201 -33t149 -92.5t92 -146t32 -191.5q0 -101 -33 -186t-94 -146t-148 -95t-195 -34h-335v-325h-273zM405 577h329q95 0 149 49.5t54 159.5t-54 159.5t-149 49.5h-329v-418z" />
<glyph unicode="&#xdf;" horiz-adv-x="1220" d="M124 0v1070q0 95 35.5 180.5t98 149.5t149.5 101.5t191 37.5q105 0 192 -34t148 -93.5t95.5 -135.5t34.5 -163q0 -93 -35.5 -168.5t-101.5 -129.5q112 -49 169.5 -147.5t57.5 -223.5q0 -110 -33 -196t-93.5 -147.5t-146.5 -94.5t-192 -33q-48 0 -103 10.5t-91 26.5v255 q41 -17 85.5 -24.5t92.5 -7.5q103 0 156 61.5t53 153.5q0 93 -62 147t-155 54h-170v255h119q33 0 64.5 10t56.5 33.5t40 59t15 85.5q0 87 -50.5 138t-143.5 51q-87 0 -144 -61.5t-57 -157.5v-1062h-275z" />
<glyph unicode="&#xe0;" horiz-adv-x="1202" d="M64 325q0 89 35 147.5t95.5 95t139 54t167.5 25.5q67 6 122.5 15t96 22t63 33.5t22.5 54.5q0 41 -51 71t-144 30q-37 0 -74 -8.5t-69.5 -25t-57 -42t-32.5 -59.5h-274q10 77 51 141t106 111.5t152 74.5t192 27q107 0 184 -21t128.5 -54.5t82.5 -75t47 -82t20 -76t4 -55.5 v-554q0 -40 10 -91.5t21 -82.5h-251q-16 37 -27 99q-53 -56 -134 -87.5t-192 -31.5q-85 0 -162.5 21.5t-138 63.5t-96.5 107.5t-36 152.5zM269 1496h304l193 -292h-201zM339 322q0 -45 48.5 -73t131.5 -28q62 0 116 10.5t94.5 34.5t63 60t22.5 88v99q-43 -29 -108.5 -43 t-149.5 -26q-101 -10 -159.5 -35.5t-58.5 -86.5z" />
<glyph unicode="&#xe1;" horiz-adv-x="1202" d="M64 325q0 89 35 147.5t95.5 95t139 54t167.5 25.5q67 6 122.5 15t96 22t63 33.5t22.5 54.5q0 41 -51 71t-144 30q-37 0 -74 -8.5t-69.5 -25t-57 -42t-32.5 -59.5h-274q10 77 51 141t106 111.5t152 74.5t192 27q107 0 184 -21t128.5 -54.5t82.5 -75t47 -82t20 -76t4 -55.5 v-554q0 -40 10 -91.5t21 -82.5h-251q-16 37 -27 99q-53 -56 -134 -87.5t-192 -31.5q-85 0 -162.5 21.5t-138 63.5t-96.5 107.5t-36 152.5zM339 322q0 -45 48.5 -73t131.5 -28q62 0 116 10.5t94.5 34.5t63 60t22.5 88v99q-43 -29 -108.5 -43t-149.5 -26 q-101 -10 -159.5 -35.5t-58.5 -86.5zM448 1204l193 292h306l-298 -292h-201z" />
<glyph unicode="&#xe2;" horiz-adv-x="1202" d="M64 325q0 89 35 147.5t95.5 95t139 54t167.5 25.5q67 6 122.5 15t96 22t63 33.5t22.5 54.5q0 41 -51 71t-144 30q-37 0 -74 -8.5t-69.5 -25t-57 -42t-32.5 -59.5h-274q10 77 51 141t106 111.5t152 74.5t192 27q107 0 184 -21t128.5 -54.5t82.5 -75t47 -82t20 -76t4 -55.5 v-554q0 -40 10 -91.5t21 -82.5h-251q-16 37 -27 99q-53 -56 -134 -87.5t-192 -31.5q-85 0 -162.5 21.5t-138 63.5t-96.5 107.5t-36 152.5zM252 1204l230 294h244l229 -294h-223l-128 172l-126 -172h-226zM339 322q0 -45 48.5 -73t131.5 -28q62 0 116 10.5t94.5 34.5t63 60 t22.5 88v99q-43 -29 -108.5 -43t-149.5 -26q-101 -10 -159.5 -35.5t-58.5 -86.5z" />
<glyph unicode="&#xe3;" horiz-adv-x="1202" d="M64 325q0 89 35 147.5t95.5 95t139 54t167.5 25.5q67 6 122.5 15t96 22t63 33.5t22.5 54.5q0 41 -51 71t-144 30q-37 0 -74 -8.5t-69.5 -25t-57 -42t-32.5 -59.5h-274q10 77 51 141t106 111.5t152 74.5t192 27q107 0 184 -21t128.5 -54.5t82.5 -75t47 -82t20 -76t4 -55.5 v-554q0 -40 10 -91.5t21 -82.5h-251q-16 37 -27 99q-53 -56 -134 -87.5t-192 -31.5q-85 0 -162.5 21.5t-138 63.5t-96.5 107.5t-36 152.5zM233 1218q6 46 24 90t46 79.5t67.5 56t91.5 20.5q45 0 84.5 -12.5t73 -26.5t65 -26.5t59.5 -12.5q36 0 56.5 19.5t32.5 67.5h129 q-7 -48 -23.5 -92.5t-43 -78.5t-64 -55t-87.5 -21q-45 0 -84.5 12.5t-74.5 26.5t-67 26t-62 12q-73 0 -94 -85h-129zM339 322q0 -45 48.5 -73t131.5 -28q62 0 116 10.5t94.5 34.5t63 60t22.5 88v99q-43 -29 -108.5 -43t-149.5 -26q-101 -10 -159.5 -35.5t-58.5 -86.5z" />
<glyph unicode="&#xe4;" horiz-adv-x="1202" d="M64 325q0 89 35 147.5t95.5 95t139 54t167.5 25.5q67 6 122.5 15t96 22t63 33.5t22.5 54.5q0 41 -51 71t-144 30q-37 0 -74 -8.5t-69.5 -25t-57 -42t-32.5 -59.5h-274q10 77 51 141t106 111.5t152 74.5t192 27q107 0 184 -21t128.5 -54.5t82.5 -75t47 -82t20 -76t4 -55.5 v-554q0 -40 10 -91.5t21 -82.5h-251q-16 37 -27 99q-53 -56 -134 -87.5t-192 -31.5q-85 0 -162.5 21.5t-138 63.5t-96.5 107.5t-36 152.5zM279 1224v230h252v-230h-252zM339 322q0 -45 48.5 -73t131.5 -28q62 0 116 10.5t94.5 34.5t63 60t22.5 88v99q-43 -29 -108.5 -43 t-149.5 -26q-101 -10 -159.5 -35.5t-58.5 -86.5zM669 1224v230h251v-230h-251z" />
<glyph unicode="&#xe5;" horiz-adv-x="1202" d="M64 325q0 89 35 147.5t95.5 95t139 54t167.5 25.5q67 6 122.5 15t96 22t63 33.5t22.5 54.5q0 41 -51 71t-144 30q-37 0 -74 -8.5t-69.5 -25t-57 -42t-32.5 -59.5h-274q10 77 51 141t106 111.5t152 74.5t192 27q107 0 184 -21t128.5 -54.5t82.5 -75t47 -82t20 -76t4 -55.5 v-554q0 -40 10 -91.5t21 -82.5h-251q-16 37 -27 99q-53 -56 -134 -87.5t-192 -31.5q-85 0 -162.5 21.5t-138 63.5t-96.5 107.5t-36 152.5zM339 322q0 -45 48.5 -73t131.5 -28q62 0 116 10.5t94.5 34.5t63 60t22.5 88v99q-43 -29 -108.5 -43t-149.5 -26 q-101 -10 -159.5 -35.5t-58.5 -86.5zM381 1411q0 45 17.5 85.5t47.5 69.5t69 46.5t85 17.5q93 0 156 -63t63 -156q0 -45 -17.5 -84.5t-46.5 -70t-69.5 -47.5t-85.5 -17q-46 0 -85 17t-69 47.5t-47.5 70t-17.5 84.5zM503 1411q0 -41 28 -71.5t69 -30.5t70 30.5t29 71.5 q0 43 -29 73t-70 30t-69 -30t-28 -73z" />
<glyph unicode="&#xe6;" horiz-adv-x="1958" d="M64 325q0 110 51 174t125 99t159 47.5t153 20.5q46 4 92.5 8.5t85 13.5t62 25.5t23.5 46.5q0 41 -55 67.5t-142 26.5q-31 0 -67 -5t-68.5 -18.5t-58 -36t-35.5 -56.5h-286q10 77 51 141t107 111.5t155 74.5t194 27q158 0 250.5 -41.5t142.5 -97.5q69 64 159.5 101.5 t193.5 37.5q119 0 223.5 -44.5t179 -129.5t111.5 -208.5t21 -283.5h-801q29 -97 100 -150t164 -53q71 0 130 29.5t99 86.5h289q-48 -163 -181.5 -263.5t-334.5 -100.5q-126 0 -233 53t-178 146q-53 -93 -159.5 -143.5t-266.5 -50.5q-85 0 -165.5 21.5t-146 63.5 t-104.5 107.5t-39 152.5zM329 318q0 -41 51.5 -70t136.5 -29q64 0 122 11.5t99.5 36.5t66 63.5t24.5 91.5v75q-47 -29 -111.5 -42t-131.5 -19q-130 -10 -193.5 -36.5t-63.5 -81.5zM1096 655h524q-29 89 -100.5 139t-165.5 50q-86 0 -156.5 -51t-101.5 -138z" />
<glyph unicode="&#xe7;" horiz-adv-x="1180" d="M62 529q0 116 41 218.5t114 179t174 121t221 44.5q95 0 179 -27t151 -76.5t114 -121t71 -160.5h-294q-31 54 -88.5 87t-132.5 33q-55 0 -104.5 -23.5t-87 -64t-59.5 -94t-22 -116.5q0 -59 22 -112t59.5 -93t87 -63t104.5 -23q77 0 135 33t88 89h292 q-45 -180 -177.5 -281.5t-322.5 -105.5l-50 -80q33 12 74.5 11t77 -17.5t59 -49t23.5 -81.5q0 -79 -52 -122.5t-139 -43.5q-53 0 -106.5 25t-91.5 63l38 63q29 -29 68 -42t78 -13q35 0 61 16t26 50q0 27 -22 47.5t-61 20.5q-18 0 -37 -5t-36 -22l-73 49l69 138 q-105 14 -191.5 62.5t-149 122t-96.5 166.5t-34 198z" />
<glyph unicode="&#xe8;" horiz-adv-x="1209" d="M62 531q0 116 43 218.5t118 178t174.5 120t210.5 44.5q118 0 222.5 -44.5t179 -130.5t111.5 -209.5t23 -281.5h-805q28 -99 99 -155t168 -56q69 0 129.5 30t95.5 94h292q-47 -163 -180.5 -263.5t-334.5 -100.5q-112 0 -211 43.5t-174 119t-118 177t-43 216.5zM223 1496 h304l193 -292h-201zM343 649h530q-26 93 -97 148t-170 55q-93 0 -163 -55t-100 -148z" />
<glyph unicode="&#xe9;" horiz-adv-x="1209" d="M62 531q0 116 43 218.5t118 178t174.5 120t210.5 44.5q118 0 222.5 -44.5t179 -130.5t111.5 -209.5t23 -281.5h-805q28 -99 99 -155t168 -56q69 0 129.5 30t95.5 94h292q-47 -163 -180.5 -263.5t-334.5 -100.5q-112 0 -211 43.5t-174 119t-118 177t-43 216.5zM343 649 h530q-26 93 -97 148t-170 55q-93 0 -163 -55t-100 -148zM515 1204l192 292h307l-298 -292h-201z" />
<glyph unicode="&#xea;" horiz-adv-x="1209" d="M62 531q0 116 43 218.5t118 178t174.5 120t210.5 44.5q118 0 222.5 -44.5t179 -130.5t111.5 -209.5t23 -281.5h-805q28 -99 99 -155t168 -56q69 0 129.5 30t95.5 94h292q-47 -163 -180.5 -263.5t-334.5 -100.5q-112 0 -211 43.5t-174 119t-118 177t-43 216.5zM255 1204 l229 294h244l229 -294h-223l-128 172l-126 -172h-225zM343 649h530q-26 93 -97 148t-170 55q-93 0 -163 -55t-100 -148z" />
<glyph unicode="&#xeb;" horiz-adv-x="1209" d="M62 531q0 116 43 218.5t118 178t174.5 120t210.5 44.5q118 0 222.5 -44.5t179 -130.5t111.5 -209.5t23 -281.5h-805q28 -99 99 -155t168 -56q69 0 129.5 30t95.5 94h292q-47 -163 -180.5 -263.5t-334.5 -100.5q-112 0 -211 43.5t-174 119t-118 177t-43 216.5zM286 1224 v230h251v-230h-251zM343 649h530q-26 93 -97 148t-170 55q-93 0 -163 -55t-100 -148zM675 1224v230h252v-230h-252z" />
<glyph unicode="&#xec;" horiz-adv-x="535" d="M-95 1496h304l192 -292h-200zM130 0v1066h273v-1066h-273z" />
<glyph unicode="&#xed;" horiz-adv-x="535" d="M130 0v1066h273v-1066h-273zM142 1204l193 292h306l-298 -292h-201z" />
<glyph unicode="&#xee;" horiz-adv-x="535" d="M-83 1204l229 294h245l229 -294h-223l-128 172l-127 -172h-225zM130 0v1066h273v-1066h-273z" />
<glyph unicode="&#xef;" horiz-adv-x="535" d="M-47 1224v230h252v-230h-252zM130 0v1066h273v-1066h-273zM341 1224v230h253v-230h-253z" />
<glyph unicode="&#xf0;" horiz-adv-x="1214" d="M69 517q0 132 46.5 235.5t119.5 174t162 107t174 36.5q93 0 173 -36q-37 54 -84.5 105t-105.5 94l-153 -112l-113 71l156 113q-35 18 -70 34.5t-72 30.5l203 152q35 -16 68 -34.5t66 -39.5l129 95l113 -70l-137 -101q190 -160 287.5 -380t97.5 -461q0 -124 -41.5 -227 t-113.5 -177.5t-168.5 -116t-205.5 -41.5q-110 0 -207 41.5t-169 115t-113.5 173.5t-41.5 218zM339 517q0 -67 21 -122.5t55.5 -95.5t82.5 -62t102 -22q53 0 100.5 22t83 62t56.5 95.5t21 122.5q0 69 -21 124.5t-56.5 96t-83 63t-100.5 22.5q-54 0 -102 -22.5t-82.5 -63 t-55.5 -96t-21 -124.5z" />
<glyph unicode="&#xf1;" horiz-adv-x="1192" d="M124 0v1066h261v-104q51 59 119.5 94.5t155.5 35.5q92 0 170 -34t132 -95t84 -148t30 -193v-622h-273v622q0 23 -6.5 59.5t-26.5 70.5t-58.5 57.5t-107.5 23.5q-93 0 -150 -59.5t-57 -151.5v-622h-273zM250 1218q7 46 24.5 90t45 79.5t67 56t91.5 20.5q45 0 84.5 -12.5 t74 -26.5t65 -26.5t60.5 -12.5q35 0 55 19.5t33 67.5h129q-6 -48 -23 -92.5t-43.5 -78.5t-64 -55t-86.5 -21q-46 0 -85.5 12.5t-74.5 26.5t-67 26t-63 12q-73 0 -93 -85h-129z" />
<glyph unicode="&#xf2;" horiz-adv-x="1196" d="M62 531q0 120 42 222.5t115 178t170 118t209 42.5t209 -42.5t170 -118t115.5 -178t42.5 -222.5t-42.5 -221t-115.5 -175.5t-170.5 -117t-208.5 -42.5q-112 0 -209 42.5t-170 117t-115 176t-42 220.5zM209 1496h304l192 -292h-200zM335 529q0 -68 21 -124t55.5 -96 t83.5 -62t103 -22q53 0 100.5 22t84 62t57.5 96.5t21 123.5q0 69 -21 127t-57.5 99t-84 64t-100.5 23q-54 0 -103 -23t-83.5 -64t-55.5 -99t-21 -127z" />
<glyph unicode="&#xf3;" horiz-adv-x="1196" d="M62 531q0 120 42 222.5t115 178t170 118t209 42.5t209 -42.5t170 -118t115.5 -178t42.5 -222.5t-42.5 -221t-115.5 -175.5t-170.5 -117t-208.5 -42.5q-112 0 -209 42.5t-170 117t-115 176t-42 220.5zM335 529q0 -68 21 -124t55.5 -96t83.5 -62t103 -22q53 0 100.5 22 t84 62t57.5 96.5t21 123.5q0 69 -21 127t-57.5 99t-84 64t-100.5 23q-54 0 -103 -23t-83.5 -64t-55.5 -99t-21 -127zM507 1204l192 292h306l-298 -292h-200z" />
<glyph unicode="&#xf4;" horiz-adv-x="1196" d="M62 531q0 120 42 222.5t115 178t170 118t209 42.5t209 -42.5t170 -118t115.5 -178t42.5 -222.5t-42.5 -221t-115.5 -175.5t-170.5 -117t-208.5 -42.5q-112 0 -209 42.5t-170 117t-115 176t-42 220.5zM255 1204l229 294h244l229 -294h-223l-128 172l-126 -172h-225z M335 529q0 -68 21 -124t55.5 -96t83.5 -62t103 -22q53 0 100.5 22t84 62t57.5 96.5t21 123.5q0 69 -21 127t-57.5 99t-84 64t-100.5 23q-54 0 -103 -23t-83.5 -64t-55.5 -99t-21 -127z" />
<glyph unicode="&#xf5;" horiz-adv-x="1196" d="M62 531q0 120 42 222.5t115 178t170 118t209 42.5t209 -42.5t170 -118t115.5 -178t42.5 -222.5t-42.5 -221t-115.5 -175.5t-170.5 -117t-208.5 -42.5q-112 0 -209 42.5t-170 117t-115 176t-42 220.5zM233 1218q6 46 24 90t46 79.5t67.5 56t91.5 20.5q45 0 84.5 -12.5 t73 -26.5t65 -26.5t59.5 -12.5q36 0 56.5 19.5t32.5 67.5h129q-7 -48 -23.5 -92.5t-43 -78.5t-64 -55t-87.5 -21q-45 0 -84.5 12.5t-74.5 26.5t-67 26t-62 12q-73 0 -94 -85h-129zM335 529q0 -68 21 -124t55.5 -96t83.5 -62t103 -22q53 0 100.5 22t84 62t57.5 96.5t21 123.5 q0 69 -21 127t-57.5 99t-84 64t-100.5 23q-54 0 -103 -23t-83.5 -64t-55.5 -99t-21 -127z" />
<glyph unicode="&#xf6;" horiz-adv-x="1196" d="M62 531q0 120 42 222.5t115 178t170 118t209 42.5t209 -42.5t170 -118t115.5 -178t42.5 -222.5t-42.5 -221t-115.5 -175.5t-170.5 -117t-208.5 -42.5q-112 0 -209 42.5t-170 117t-115 176t-42 220.5zM279 1224v230h252v-230h-252zM335 529q0 -68 21 -124t55.5 -96 t83.5 -62t103 -22q53 0 100.5 22t84 62t57.5 96.5t21 123.5q0 69 -21 127t-57.5 99t-84 64t-100.5 23q-54 0 -103 -23t-83.5 -64t-55.5 -99t-21 -127zM669 1224v230h251v-230h-251z" />
<glyph unicode="&#xf7;" horiz-adv-x="462" d="M95 584v270h274v-270h-274z" />
<glyph unicode="&#xf8;" horiz-adv-x="1196" d="M62 529q0 116 42 218.5t115 179t171 121t210 44.5q93 0 177 -32t152 -87l95 95l105 -102l-99 -101q50 -71 77.5 -156t27.5 -180q0 -116 -42.5 -216t-114.5 -176.5t-169 -120t-209 -43.5q-95 0 -180 32t-153 88l-95 -95l-103 103l97 100q-48 71 -76 153t-28 175zM331 529 q0 -70 29 -132l382 387q-31 23 -67 35t-75 12q-56 0 -105 -23.5t-85.5 -64t-57.5 -96t-21 -118.5zM453 282q32 -23 69 -36t78 -13q55 0 103.5 24.5t85 64.5t57.5 94t21 113q0 77 -32 140z" />
<glyph unicode="&#xf9;" horiz-adv-x="1190" d="M116 442v624h273v-624q0 -23 6 -58t26.5 -68.5t60 -58t106.5 -24.5q93 0 149.5 60.5t56.5 148.5v624h274v-1066h-261v97q-49 -58 -118 -90t-154 -32q-95 0 -172 34t-132 95.5t-85 147t-30 190.5zM215 1496h304l193 -292h-201z" />
<glyph unicode="&#xfa;" horiz-adv-x="1190" d="M116 442v624h273v-624q0 -23 6 -58t26.5 -68.5t60 -58t106.5 -24.5q93 0 149.5 60.5t56.5 148.5v624h274v-1066h-261v97q-49 -58 -118 -90t-154 -32q-95 0 -172 34t-132 95.5t-85 147t-30 190.5zM507 1204l192 292h306l-298 -292h-200z" />
<glyph unicode="&#xfb;" horiz-adv-x="1190" d="M116 442v624h273v-624q0 -23 6 -58t26.5 -68.5t60 -58t106.5 -24.5q93 0 149.5 60.5t56.5 148.5v624h274v-1066h-261v97q-49 -58 -118 -90t-154 -32q-95 0 -172 34t-132 95.5t-85 147t-30 190.5zM240 1204l230 294h244l229 -294h-223l-128 172l-126 -172h-226z" />
<glyph unicode="&#xfc;" horiz-adv-x="1190" d="M116 442v624h273v-624q0 -23 6 -58t26.5 -68.5t60 -58t106.5 -24.5q93 0 149.5 60.5t56.5 148.5v624h274v-1066h-261v97q-49 -58 -118 -90t-154 -32q-95 0 -172 34t-132 95.5t-85 147t-30 190.5zM277 1224v230h252v-230h-252zM666 1224v230h252v-230h-252z" />
<glyph unicode="&#xfd;" horiz-adv-x="1101" d="M2 1066h292l252 -715h6l255 715h294q-12 -36 -40.5 -107t-63.5 -166.5t-76.5 -205t-83.5 -218.5q-97 -257 -210 -564q-39 -103 -90 -165t-108.5 -94t-123 -39.5t-131.5 -3.5v251q76 -4 119.5 26t79.5 121l34 99zM476 1245l193 298h297l-287 -298h-203z" />
<glyph unicode="&#xfe;" horiz-adv-x="1289" d="M134 -474v1909h276v-469q60 59 139.5 91.5t172.5 32.5q105 0 197 -42.5t160.5 -117t109 -176t40.5 -219.5t-40.5 -220t-109 -177.5t-160.5 -118t-197 -42.5q-93 0 -172.5 33t-139.5 93v-577h-276zM410 535q0 -61 21.5 -117t58.5 -97.5t87 -65.5t106 -24q55 0 104.5 23 t87 64.5t59 96t21.5 120.5q0 64 -21.5 119t-59 95.5t-87 63t-104.5 22.5q-56 0 -106 -23.5t-87 -64t-58.5 -95t-21.5 -117.5z" />
<glyph unicode="&#xff;" horiz-adv-x="1099" d="M2 1066h290l260 -770l255 770h291l-471 -1261q-39 -103 -89 -165t-111 -94t-134.5 -39.5t-156.5 -0.5v248q52 -4 90.5 2t67 22.5t50.5 47t39 75.5l31 81zM223 1224v230h253v-230h-253zM612 1224v230h253v-230h-253z" />
<glyph unicode="&#x152;" horiz-adv-x="2321" d="M69 724q0 156 52.5 292t145.5 237t222 159.5t283 58.5q132 0 237.5 -43.5t186.5 -122.5v130h1048v-254h-775v-306h661v-255h-661v-365h791v-255h-1064v140q-81 -78 -186.5 -121.5t-237.5 -43.5q-154 0 -283 58t-222 159.5t-145.5 238t-52.5 293.5zM341 724 q0 -99 34.5 -189.5t92 -156.5t136.5 -105.5t168 -39.5q84 0 159.5 36.5t133.5 100.5t92.5 148t38.5 181v47q-4 95 -38.5 180t-92.5 149t-133.5 100.5t-159.5 36.5q-89 0 -168 -38.5t-136.5 -105.5t-92 -156t-34.5 -188z" />
<glyph unicode="&#x153;" horiz-adv-x="1997" d="M62 531q0 116 42 218.5t115 178t170 120t209 44.5q124 0 226.5 -52.5t164.5 -143.5q70 91 177 143.5t230 52.5q118 0 222.5 -44.5t179 -129.5t111.5 -208.5t21 -283.5h-803q29 -97 100.5 -150t164.5 -53q70 0 129.5 29.5t100.5 86.5h287q-48 -163 -181 -263.5 t-332 -100.5q-124 0 -230.5 52t-176.5 141q-62 -89 -164.5 -141t-226.5 -52q-112 0 -209 43.5t-170 119t-115 177t-42 216.5zM335 531q0 -59 21 -113t55.5 -93t83.5 -62t103 -23q55 0 102.5 23t84 62t57.5 93t21 113q0 60 -21 114t-57.5 94.5t-84 64t-102.5 23.5 q-54 0 -103 -23.5t-83.5 -64t-55.5 -94t-21 -114.5zM1133 655h523q-29 89 -100 139t-164 50q-87 0 -157 -51t-102 -138z" />
<glyph unicode="&#x178;" horiz-adv-x="1230" d="M-4 1435h308l310 -614l313 614h308l-483 -885v-550h-274v550zM308 1579v229h255v-229h-255zM697 1579v229h254v-229h-254z" />
<glyph unicode="&#x2c6;" horiz-adv-x="862" d="M75 1204l229 294h244l230 -294h-224l-128 172l-126 -172h-225z" />
<glyph unicode="&#x2dc;" horiz-adv-x="862" d="M64 1218q6 46 23.5 90t46 79.5t67.5 56t91 20.5q45 0 84.5 -12.5t73.5 -26.5t65 -26.5t60 -12.5q35 0 55.5 19.5t33.5 67.5h128q-6 -48 -23 -92.5t-43.5 -78.5t-64 -55t-86.5 -21q-46 0 -85.5 12.5t-74 26.5t-67 26t-62.5 12q-73 0 -94 -85h-128z" />
<glyph unicode="&#x2000;" horiz-adv-x="989" />
<glyph unicode="&#x2001;" horiz-adv-x="1978" />
<glyph unicode="&#x2002;" horiz-adv-x="989" />
<glyph unicode="&#x2003;" horiz-adv-x="1978" />
<glyph unicode="&#x2004;" horiz-adv-x="659" />
<glyph unicode="&#x2005;" horiz-adv-x="494" />
<glyph unicode="&#x2006;" horiz-adv-x="329" />
<glyph unicode="&#x2007;" horiz-adv-x="329" />
<glyph unicode="&#x2008;" horiz-adv-x="247" />
<glyph unicode="&#x2009;" horiz-adv-x="395" />
<glyph unicode="&#x200a;" horiz-adv-x="109" />
<glyph unicode="&#x2010;" horiz-adv-x="683" d="M62 446v255h560v-255h-560z" />
<glyph unicode="&#x2011;" horiz-adv-x="683" d="M62 446v255h560v-255h-560z" />
<glyph unicode="&#x2012;" horiz-adv-x="683" d="M62 446v255h560v-255h-560z" />
<glyph unicode="&#x2013;" horiz-adv-x="1253" d="M64 446v255h1126v-255h-1126z" />
<glyph unicode="&#x2014;" horiz-adv-x="1966" d="M64 446v255h1839v-255h-1839z" />
<glyph unicode="&#x2018;" horiz-adv-x="419" d="M71 871v279q0 133 70 204t181 83v-115q-59 -14 -89 -57t-30 -109v-25h146v-260h-278z" />
<glyph unicode="&#x2019;" horiz-adv-x="419" d="M71 1175v260h278v-279q0 -130 -70 -202.5t-182 -82.5v116q60 12 90 55.5t30 109.5v23h-146z" />
<glyph unicode="&#x201a;" horiz-adv-x="413" d="M71 2v261h278v-279q0 -130 -70 -203t-182 -83v116q60 12 90 55.5t30 110.5v22h-146z" />
<glyph unicode="&#x201c;" horiz-adv-x="880" d="M71 871v279q0 133 70 204t181 83v-115q-59 -14 -89 -57t-30 -109v-25h146v-260h-278zM531 871v279q0 133 71 204t182 83v-115q-60 -14 -90 -57t-30 -109v-25h147v-260h-280z" />
<glyph unicode="&#x201d;" horiz-adv-x="880" d="M71 1175v260h278v-279q0 -130 -70 -202.5t-182 -82.5v116q60 12 90 55.5t30 109.5v23h-146zM531 1175v260h280v-279q0 -130 -70 -202.5t-182 -82.5v116q59 12 89.5 55.5t30.5 109.5v23h-148z" />
<glyph unicode="&#x201e;" horiz-adv-x="874" d="M71 0v261h278v-279q0 -130 -70 -203t-182 -83v116q60 12 90 55.5t30 109.5v23h-146zM531 0v261h280v-279q0 -130 -70 -203t-182 -83v116q59 12 89.5 55.5t30.5 109.5v23h-148z" />
<glyph unicode="&#x2022;" horiz-adv-x="647" d="M103 755q0 46 17.5 85t47 69t69.5 48t88 18q46 0 84.5 -18t69 -48t48 -69t17.5 -85q0 -47 -17.5 -87.5t-48 -69.5t-69 -47t-84.5 -18q-47 0 -87.5 18t-70 47t-47 69t-17.5 88z" />
<glyph unicode="&#x2026;" horiz-adv-x="1786" d="M95 0v292h294v-292h-294zM746 0v292h294v-292h-294zM1398 0v292h294v-292h-294z" />
<glyph unicode="&#x202f;" horiz-adv-x="395" />
<glyph unicode="&#x2039;" horiz-adv-x="434" d="M47 517v205l328 281v-217l-207 -166l207 -170v-217z" />
<glyph unicode="&#x203a;" horiz-adv-x="434" d="M60 233v217l207 170l-207 166v217l329 -281v-205z" />
<glyph unicode="&#x205f;" horiz-adv-x="494" />
<glyph unicode="&#x2122;" horiz-adv-x="1902" d="M73 1243v192h655v-192h-225v-710h-205v710h-225zM833 533v902h263l220 -655l221 655h263v-902h-197v547l-180 -547h-215l-178 545v-545h-197z" />
<glyph unicode="&#x25fc;" horiz-adv-x="1064" d="M0 0v1066h1066v-1066h-1066z" />
</font>
</defs>
</svg>
