<?xml version="1.0" encoding="utf-8"?>
<!-- Generator: Adobe Illustrator 19.0.0, SVG Export Plug-In . SVG Version: 6.00 Build 0)  -->
<svg version="1.1" id="Calque_1" xmlns="http://www.w3.org/2000/svg" xmlns:xlink="http://www.w3.org/1999/xlink" x="0px" y="0px"
	 width="183.3px" height="56.7px" viewBox="0 0 183.3 56.7" style="enable-background:new 0 0 183.3 56.7;" xml:space="preserve">
<style type="text/css">
	.st0{fill:#ED1C24;}
	.st1{fill:#00ABF5;}
	.st2{fill:#8AC742;}
	.st3{fill:#2B405E;}
</style>
<g id="XMLID_2_">
	<path id="XMLID_55_" class="st0" d="M30.7,2.7c-3-1-5.7-1.5-7.8-1.6c-3.7-0.2-7.2,0.4-10,1.7C11.1,3.5,9.6,4.6,8.4,6
		c-1.8,2.1-2.5,4.7-2,7.5c0.6,3,2.9,6.1,2.9,6.1c2.2,2.9,4.7,5.5,7.5,7.9c1.6,1.3,3.9,3,5.6,4.2c0.1-1.3,0.2-2.7,0.2-4.2l0-2.2
		c-7-5.2-10.4-10.7-10.9-12.8c-0.3-1.2,0-2.2,0.8-3.1c0.8-0.9,1.9-1.7,3.4-2.2c4.3-1.6,11.2-1.2,18.7,3.1c-5.6,1.4-11,3.5-16.2,6.6
		c1,1.2,2.3,2.5,4,3.9l1.6-0.8c4.3-2.1,11.2-5,17.8-5.6c2.3-0.2,4.5-0.1,6.5,0.3C44.1,10.2,37.8,5.1,30.7,2.7L30.7,2.7z"/>
	<path id="XMLID_54_" class="st1" d="M27.5,31.9L25.6,33c-1,8.7-4,14.3-5.6,15.8c-0.9,0.9-1.9,1.1-3,0.9c-1.2-0.2-2.4-0.8-3.6-1.8
		c-3.6-2.9-6.6-9.1-6.7-17.8c4,4.2,8.5,7.7,13.8,10.7c0.5-1.5,1-3.3,1.4-5.5l-1.5-1c-4-2.7-10-7.2-13.8-12.6c-1.3-1.9-2.4-3.8-3-5.8
		C1.8,22,0.5,29.9,2,37.3c0.6,3.2,1.6,5.7,2.5,7.6c1.7,3.3,3.9,6,6.4,7.8c1.6,1.1,3.3,1.9,5,2.2c2.7,0.5,5.4-0.2,7.5-2
		c2.3-2,3.8-5.6,3.8-5.6c1.4-3.4,2.4-6.9,3.1-10.4c0.3-2,0.6-4.9,0.8-6.9C30,30.5,28.8,31.2,27.5,31.9L27.5,31.9z"/>
	<path id="XMLID_53_" class="st2" d="M55.1,25.7c-0.1-0.6-0.3-1.2-0.5-1.8c-0.9-2.6-2.8-4.5-5.5-5.5c-2.9-1-6.7-0.5-6.7-0.5
		c-3.6,0.5-7.2,1.3-10.6,2.5c-2,0.8-4,1.6-5.8,2.5l0,2.2c0,1.3,0,2.6-0.1,3.9c10.2-5.8,18.9-6.2,21.4-5.5c1.2,0.4,1.9,1.1,2.3,2.2
		c0,0.1,0.1,0.2,0.1,0.3c0.3,1.1,0.4,2.3,0.2,3.7c-0.5,3.3-2.7,7.2-6.7,10.8c-1.5,1.4-3.3,2.7-5.4,3.9c0.4-1.2,0.7-2.4,0.9-3.6
		c1-4.4,1.5-9,1.4-13.7c-1.5,0.3-3.3,0.8-5.4,1.5l-0.1,1.8c-0.2,2.9-0.6,6.8-1.6,10.8c-0.6,2.6-1.4,5.1-2.5,7.5
		c-0.9,2.1-2.1,4-3.5,5.5c6.2-1.5,13.7-4.3,19.4-9.3c1.9-1.7,3.4-3.4,4.5-4.9c0.3-0.4,0.6-0.8,0.8-1.1c2.1-3.1,3.3-6.4,3.5-9.5
		C55.3,28.1,55.3,26.9,55.1,25.7L55.1,25.7z"/>
	<path id="XMLID_50_" class="st3" d="M64.3,43.7h-1.5v4.4h1.5c0.9,0,1.5-0.2,1.9-0.6c0.4-0.4,0.6-0.9,0.6-1.6c0-0.7-0.2-1.2-0.6-1.6
		C65.7,43.9,65.1,43.7,64.3,43.7L64.3,43.7z M65.6,47c-0.3,0.3-0.7,0.4-1.2,0.4h-0.8v-3h0.7c1.2,0,1.7,0.5,1.7,1.5
		C66.1,46.4,65.9,46.8,65.6,47L65.6,47z"/>
	<polygon id="XMLID_49_" class="st3" points="69.9,46.2 72,46.2 72,45.6 69.9,45.6 69.9,44.4 72.2,44.4 72.2,43.7 69.1,43.7 
		69.1,48.1 72.3,48.1 72.3,47.4 69.9,47.4 69.9,46.2 	"/>
	<path id="XMLID_48_" class="st3" d="M76.3,45.5c-0.5-0.1-0.7-0.2-0.9-0.3c-0.1-0.1-0.2-0.2-0.2-0.4c0-0.2,0.1-0.3,0.2-0.4
		c0.1-0.1,0.3-0.1,0.5-0.1s0.4,0,0.7,0.1c0.2,0.1,0.4,0.2,0.5,0.3l0.4-0.6c-0.2-0.2-0.4-0.3-0.7-0.4c-0.3-0.1-0.6-0.1-0.8-0.1
		c-0.4,0-0.8,0.1-1.1,0.3c-0.3,0.2-0.4,0.5-0.4,0.9c0,0.4,0.1,0.7,0.4,0.9c0.1,0.1,0.3,0.2,0.4,0.3c0.2,0.1,0.4,0.1,0.7,0.2
		c0.3,0.1,0.6,0.2,0.7,0.3c0.1,0.1,0.2,0.2,0.2,0.4c0,0.2-0.1,0.3-0.2,0.4c-0.1,0.1-0.3,0.2-0.6,0.2c-0.5,0-0.9-0.2-1.4-0.6
		l-0.5,0.6c0.5,0.5,1.2,0.7,1.8,0.7c0.5,0,0.9-0.1,1.1-0.4c0.3-0.2,0.4-0.6,0.4-0.9c0-0.4-0.1-0.7-0.3-0.9
		C77.1,45.8,76.8,45.6,76.3,45.5L76.3,45.5z"/>
	<polygon id="XMLID_47_" class="st3" points="80,48.1 80.7,48.1 80.7,43.7 80,43.7 80,48.1 	"/>
	<path id="XMLID_46_" class="st3" d="M86.4,47.2c-0.3,0.2-0.6,0.3-1.1,0.3c-0.4,0-0.8-0.1-1.1-0.4c-0.3-0.3-0.4-0.7-0.4-1.1
		c0-0.5,0.2-0.8,0.5-1.1c0.3-0.3,0.7-0.4,1.1-0.4c0.2,0,0.4,0,0.6,0.1c0.2,0.1,0.4,0.2,0.5,0.3l0.4-0.6c-0.4-0.4-1-0.6-1.6-0.6
		c-0.6,0-1.2,0.2-1.6,0.7c-0.5,0.4-0.7,1-0.7,1.6c0,0.7,0.2,1.2,0.7,1.6c0.4,0.4,1,0.6,1.6,0.6c0.8,0,1.4-0.2,1.8-0.7V46h-0.7V47.2
		L86.4,47.2z"/>
	<polygon id="XMLID_45_" class="st3" points="92.8,47 90.2,43.7 89.5,43.7 89.5,48.1 90.2,48.1 90.2,44.9 92.7,48.1 93.5,48.1 
		93.5,43.7 92.8,43.7 92.8,47 	"/>
	<path id="XMLID_42_" class="st3" d="M104.3,43.7h-1.5v4.4h1.5c0.9,0,1.5-0.2,1.9-0.6c0.4-0.4,0.6-0.9,0.6-1.6
		c0-0.7-0.2-1.2-0.6-1.6C105.7,43.9,105.1,43.7,104.3,43.7L104.3,43.7z M105.6,47c-0.3,0.3-0.7,0.4-1.2,0.4h-0.8v-3h0.7
		c1.2,0,1.7,0.5,1.7,1.5C106,46.4,105.9,46.8,105.6,47L105.6,47z"/>
	<polygon id="XMLID_41_" class="st3" points="109.8,46.2 112,46.2 112,45.6 109.8,45.6 109.8,44.4 112.2,44.4 112.2,43.7 
		109.1,43.7 109.1,48.1 112.3,48.1 112.3,47.4 109.8,47.4 109.8,46.2 	"/>
	<polygon id="XMLID_40_" class="st3" points="116.2,47 114.8,43.7 114,43.7 115.8,48.1 116.6,48.1 118.4,43.7 117.5,43.7 116.2,47 	
		"/>
	<polygon id="XMLID_39_" class="st3" points="121.1,46.2 123.2,46.2 123.2,45.6 121.1,45.6 121.1,44.4 123.5,44.4 123.5,43.7 
		120.4,43.7 120.4,48.1 123.6,48.1 123.6,47.4 121.1,47.4 121.1,46.2 	"/>
	<polygon id="XMLID_38_" class="st3" points="126.6,43.7 125.9,43.7 125.9,48.1 128.6,48.1 128.6,47.4 126.6,47.4 126.6,43.7 	"/>
	<path id="XMLID_35_" class="st3" d="M132.7,43.6c-0.7,0-1.2,0.2-1.7,0.7c-0.4,0.4-0.7,1-0.7,1.6c0,0.7,0.2,1.2,0.7,1.6
		c0.5,0.4,1,0.7,1.7,0.7c0.7,0,1.2-0.2,1.7-0.7c0.4-0.4,0.7-1,0.7-1.6c0-0.7-0.2-1.2-0.7-1.6C134,43.8,133.4,43.6,132.7,43.6
		L132.7,43.6z M133.9,47c-0.3,0.3-0.7,0.5-1.1,0.5c-0.4,0-0.8-0.2-1.1-0.5c-0.3-0.3-0.5-0.7-0.5-1.1c0-0.4,0.2-0.8,0.5-1.1
		c0.3-0.3,0.7-0.5,1.1-0.5c0.4,0,0.8,0.2,1.1,0.5c0.3,0.3,0.5,0.7,0.5,1.1C134.3,46.3,134.2,46.7,133.9,47L133.9,47z"/>
	<path id="XMLID_32_" class="st3" d="M138.9,43.7h-1.5v4.4h0.7v-1.3h0.8c0.7,0,1.1-0.1,1.5-0.4c0.3-0.3,0.5-0.6,0.5-1.2
		c0-0.5-0.2-0.9-0.5-1.2C140.1,43.8,139.6,43.7,138.9,43.7L138.9,43.7z M139.8,45.9c-0.2,0.2-0.4,0.2-0.8,0.2h-0.9v-1.8h0.8
		c0.4,0,0.7,0.1,0.9,0.2c0.2,0.1,0.3,0.3,0.3,0.7C140.1,45.5,140,45.7,139.8,45.9L139.8,45.9z"/>
	<path id="XMLID_29_" class="st3" d="M151.2,43.7h-1.5v4.4h1.5c0.9,0,1.5-0.2,1.9-0.6c0.4-0.4,0.6-0.9,0.6-1.6
		c0-0.7-0.2-1.2-0.6-1.6C152.6,43.9,152,43.7,151.2,43.7L151.2,43.7z M152.5,47c-0.3,0.3-0.7,0.4-1.2,0.4h-0.8v-3h0.7
		c1.2,0,1.7,0.5,1.7,1.5C153,46.4,152.8,46.8,152.5,47L152.5,47z"/>
	<polygon id="XMLID_28_" class="st3" points="156.8,46.2 158.9,46.2 158.9,45.6 156.8,45.6 156.8,44.4 159.1,44.4 159.1,43.7 
		156,43.7 156,48.1 159.2,48.1 159.2,47.4 156.8,47.4 156.8,46.2 	"/>
	<path id="XMLID_25_" class="st3" d="M163.1,43.7h-1.5v4.4h0.8v-1.3h0.8c0.7,0,1.1-0.1,1.4-0.4c0.3-0.3,0.5-0.6,0.5-1.2
		c0-0.5-0.2-0.9-0.5-1.2C164.2,43.8,163.7,43.7,163.1,43.7L163.1,43.7z M164,45.9c-0.2,0.2-0.4,0.2-0.8,0.2h-0.9v-1.8h0.8
		c0.4,0,0.7,0.1,0.9,0.2c0.2,0.1,0.3,0.3,0.3,0.7C164.2,45.5,164.1,45.7,164,45.9L164,45.9z"/>
	<polygon id="XMLID_24_" class="st3" points="168,43.7 167.2,43.7 167.2,48.1 170,48.1 170,47.4 168,47.4 168,43.7 	"/>
	<path id="XMLID_21_" class="st3" d="M174.1,43.6c-0.7,0-1.2,0.2-1.7,0.7c-0.5,0.4-0.7,1-0.7,1.6c0,0.7,0.2,1.2,0.7,1.6
		c0.4,0.4,1,0.7,1.7,0.7c0.7,0,1.2-0.2,1.7-0.7c0.4-0.4,0.7-1,0.7-1.6c0-0.7-0.2-1.2-0.7-1.6C175.3,43.8,174.7,43.6,174.1,43.6
		L174.1,43.6z M175.2,47c-0.3,0.3-0.7,0.5-1.1,0.5c-0.4,0-0.8-0.2-1.1-0.5c-0.3-0.3-0.5-0.7-0.5-1.1c0-0.4,0.1-0.8,0.5-1.1
		c0.3-0.3,0.7-0.5,1.1-0.5c0.4,0,0.8,0.2,1.1,0.5c0.3,0.3,0.5,0.7,0.5,1.1C175.7,46.3,175.5,46.7,175.2,47L175.2,47z"/>
	<polygon id="XMLID_20_" class="st3" points="181.1,43.7 179.9,45.7 178.7,43.7 177.9,43.7 179.6,46.4 179.6,48.1 180.3,48.1 
		180.3,46.4 182,43.7 181.1,43.7 	"/>
	<path id="XMLID_19_" class="st3" d="M99.1,45.9c0,0.5-0.4,0.9-0.9,0.9c-0.5,0-0.9-0.4-0.9-0.9c0-0.5,0.4-0.9,0.9-0.9
		C98.7,45,99.1,45.4,99.1,45.9L99.1,45.9z"/>
	<path id="XMLID_18_" class="st3" d="M145,45c-0.5,0-0.9,0.4-0.9,0.9c0,0.5,0.4,0.9,0.9,0.9c0.5,0,0.9-0.4,0.9-0.9
		C145.9,45.4,145.5,45,145,45L145,45z"/>
	<polygon id="XMLID_17_" class="st3" points="62.8,14.4 69.9,14.4 69.9,34.1 73.8,34.1 73.8,14.4 80.9,14.4 80.9,10.8 62.8,10.8 
		62.8,14.4 	"/>
	<path id="XMLID_16_" class="st3" d="M89.7,17.2c-1,0.7-1.9,1.6-2.5,2.7v-3.6h-3.7v17.7h3.7v-7.6c0-2,0.5-3.6,1.4-4.8
		c0.9-1.2,2.3-1.8,4.2-1.8H93l0-3.8C91.8,16.1,90.7,16.5,89.7,17.2L89.7,17.2z"/>
	<polygon id="XMLID_15_" class="st3" points="95.5,34.1 99.3,34.1 99.3,16.4 95.5,16.4 95.5,34.1 	"/>
	<polygon id="XMLID_14_" class="st3" points="95.5,14.4 99.3,14.4 99.3,10.8 95.5,10.8 95.5,14.4 	"/>
	<path id="XMLID_11_" class="st3" d="M113,16.1c-2.4,0-4.3,1.1-5.8,3.4v-3.1h-3.7V40h3.7v-8.6c1.8,2,3.8,2.9,6,2.9
		c2.2,0,4.2-0.9,5.9-2.6c1.7-1.7,2.5-3.9,2.5-6.7c0-2.7-0.8-4.9-2.5-6.6C117.4,16.9,115.4,16.1,113,16.1L113,16.1z M116.3,29.5
		c-1.1,1.1-2.4,1.6-3.8,1.6s-2.7-0.5-3.7-1.6c-1-1.1-1.5-2.5-1.5-4.2c0-1.7,0.5-3.1,1.5-4.2c1-1.1,2.3-1.7,3.8-1.7
		c1.5,0,2.8,0.6,3.8,1.7c1.1,1.1,1.6,2.5,1.6,4.2C117.9,27,117.4,28.4,116.3,29.5L116.3,29.5z"/>
	<polygon id="XMLID_10_" class="st3" points="124.8,34.1 128.5,34.1 128.5,10.8 124.8,10.8 124.8,34.1 	"/>
	<path id="XMLID_7_" class="st3" d="M146.7,18.3c-1.7-1.5-3.7-2.2-6.2-2.2c-2.4,0-4.5,0.8-6.3,2.5c-1.8,1.6-2.7,3.9-2.7,6.7
		c0,2.8,0.9,5,2.6,6.7c1.7,1.7,3.9,2.5,6.4,2.5c3.1,0,5.6-1,7.5-3l-2.1-2.3c-1.2,1.4-2.8,2.1-5.1,2.1c-1.4,0-2.6-0.4-3.7-1.2
		c-1.1-0.8-1.7-1.8-1.8-3.1h13.9v-2.6C149.3,21.8,148.4,19.8,146.7,18.3L146.7,18.3z M135.3,24c0-1.4,0.5-2.6,1.6-3.4
		c1.1-0.8,2.3-1.3,3.7-1.3c1.4,0,2.5,0.4,3.5,1.2c0.9,0.8,1.4,1.9,1.4,3.4H135.3L135.3,24z"/>
	<path id="XMLID_6_" class="st3" d="M178.8,13.9c-2.2-2-5.4-3.1-9.6-3.1h-4.9v4.5h4.7c2.6,0,4.6,0.6,5.9,1.9c1.3,1.2,1.9,3,1.9,5.3
		c0,2.3-0.6,4-1.9,5.2c-1.3,1.2-3.1,1.8-5.5,1.8h-5.1V15.3h-4.5v18.8h9.1c4.5,0,7.8-1.1,9.9-3.2c2.2-2.1,3.3-5,3.3-8.6
		C182.1,18.7,181,15.9,178.8,13.9L178.8,13.9z"/>
	<polygon id="XMLID_5_" class="st3" points="162.7,13.7 159.8,13.7 159.8,10.8 162.7,10.8 162.7,13.7 	"/>
	<polygon id="XMLID_4_" class="st3" points="159.8,10.8 157.7,10.8 157.7,8.7 159.8,8.7 159.8,10.8 	"/>
	<polygon id="XMLID_3_" class="st3" points="162.7,9.1 161.5,9.1 161.5,7.9 162.7,7.9 162.7,9.1 	"/>
</g>
</svg>
