<svg id="Calque_1" xmlns="http://www.w3.org/2000/svg" width="358" height="244"><style>.st0{fill:#fff}</style><path class="st0" d="M187.3 10c-9.3-3.2-17.5-4.5-24-4.9-11.4-.7-21.9 1.1-30.5 5.1-5.4 2.5-10 5.8-13.5 9.9-5.5 6.5-7.7 14.4-6.1 23 1.7 9.1 8.8 18.6 8.8 18.6 6.8 8.9 14.4 16.9 22.8 24.1 4.9 4 12 9.2 17.1 12.7.4-4 .6-8.2.6-12.7v-6.7c-21.4-15.9-31.7-32.5-33.2-38.9-.9-3.7 0-6.6 2.4-9.3 2.4-2.8 5.9-5.1 10.2-6.8 13.1-5 34.2-3.7 57.2 9.5-17 4.1-33.5 10.8-49.5 20.2 3.1 3.5 7.1 7.7 12.3 12l4.9-2.4c13.2-6.4 34.3-15.3 54.4-17.2 6.9-.6 13.7-.4 20 .9-13.1-14.2-32.1-29.6-53.9-37.1z"/><path class="st0" d="M177.6 99.2l-5.8 3.3c-3.1 26.5-12.3 43.7-17.1 48.2-2.8 2.6-5.8 3.3-9.3 2.6-3.6-.7-7.4-2.5-11-5.5-10.9-8.9-20.3-27.7-20.4-54.3 12.1 12.7 26.1 23.6 42.2 32.7 1.5-4.4 3.1-10 4.3-16.7l-4.6-3.1c-12.2-8.2-30.4-22.1-42-38.5-4-5.7-7.2-11.6-9.2-17.7-5.6 18.6-9.5 42.8-5.1 65.4 1.9 9.6 4.8 17.4 7.7 23.2 5.1 10.2 11.9 18.4 19.7 23.9 4.9 3.4 10 5.7 15.3 6.7 8.4 1.6 16.3-.6 23-6.3 7.1-6 11.7-17 11.7-17 4.3-10.4 7.5-20.9 9.5-31.8 1-6.2 2-15 2.5-21.1-3.7 1.8-7.5 3.8-11.4 6z"/><path class="st0" d="M261.7 80.2c-.3-1.8-.8-3.6-1.4-5.3-2.8-8-8.7-13.9-16.9-16.8-8.8-3.1-20.5-1.7-20.5-1.7-11.1 1.4-21.8 4-32.3 7.7-6.2 2.3-12.2 5-17.8 7.6l.1 6.7c0 3.9-.1 7.9-.3 11.8 31.2-17.8 57.7-19 65.3-16.7 3.6 1.1 5.7 3.4 6.9 6.7.1.3.2.6.3 1 1 3.3 1.2 7.1.5 11.3-1.6 10-8.2 21.9-20.3 32.8-4.7 4.2-10.1 8.2-16.5 12 1.1-3.7 2-7.3 2.8-11.1 3-13.4 4.6-27.4 4.4-41.9-4.6.9-10.2 2.4-16.6 4.7l-.4 5.5c-.6 8.9-1.9 20.8-4.8 32.9-1.8 7.8-4.3 15.6-7.6 22.8-2.9 6.3-6.5 12.1-10.8 16.8 18.9-4.5 41.8-13.2 59.2-28.3 5.9-5.2 10.4-10.3 13.8-14.9.9-1.2 1.7-2.3 2.4-3.4 6.3-9.5 10-19.6 10.8-29 .5-3.8.3-7.6-.3-11.2zM11.9 224.3H7.5v12.8h4.3c2.5 0 4.3-.6 5.5-1.7 1.2-1.2 1.8-2.7 1.8-4.7s-.6-3.6-1.8-4.7c-1.3-1.1-3.1-1.7-5.4-1.7zm3.8 9.7c-.8.7-2 1.1-3.6 1.1H9.7v-8.8h2.2c3.4 0 5 1.5 5 4.4 0 1.5-.4 2.6-1.2 3.3zM28 231.7h6.1v-1.9H28v-3.4h6.8v-2.1h-9v12.9H35v-2.1h-7v-3.4zM46.6 229.7c-1.3-.3-2.2-.6-2.6-.9-.4-.3-.6-.7-.6-1.2s.2-.9.6-1.2c.4-.3.9-.4 1.6-.4.6 0 1.3.1 1.9.3.6.2 1.2.5 1.5.8l1.2-1.6c-.6-.5-1.3-.9-2.1-1.1-.8-.3-1.6-.4-2.4-.4-1.3 0-2.3.3-3.2 1-.9.6-1.3 1.6-1.3 2.7 0 1.2.4 2.1 1.1 2.6.4.3.8.6 1.3.7.5.2 1.2.4 2.2.6.9.2 1.6.5 2 .8.4.3.6.7.6 1.2s-.2.9-.6 1.2c-.4.3-1 .5-1.7.5-1.4 0-2.7-.6-4-1.7l-1.4 1.6c1.6 1.4 3.3 2.1 5.3 2.1 1.4 0 2.5-.3 3.3-1 .8-.7 1.3-1.6 1.3-2.7s-.3-2-1-2.5c-.7-.7-1.6-1.1-3-1.4zM57.2 237.2h2.2v-12.9h-2.2v12.9zM75.7 234.4c-.8.5-1.8.8-3.1.8-1.2 0-2.3-.4-3.1-1.2-.8-.8-1.3-1.9-1.3-3.3s.4-2.5 1.3-3.3c.9-.8 2-1.3 3.3-1.3.7 0 1.3.1 1.8.3.5.2 1 .5 1.5.9l1.2-1.7c-1.2-1.1-2.8-1.6-4.6-1.6-1.8 0-3.4.6-4.7 1.9-1.3 1.3-2 2.9-2 4.8s.6 3.5 1.9 4.7c1.3 1.2 2.9 1.9 4.8 1.9 2.3 0 4-.7 5.2-2v-4.4h-2.2v3.5zM94.3 233.9l-7.5-9.6h-2.1v12.9h2.1v-9.4l7.3 9.4h2.4v-12.9h-2.2v9.6zM127.6 224.3h-4.4v12.8h4.3c2.5 0 4.3-.6 5.5-1.7 1.2-1.2 1.8-2.7 1.8-4.7s-.6-3.6-1.9-4.7c-1.2-1.1-3-1.7-5.3-1.7zm3.7 9.7c-.8.7-2 1.1-3.6 1.1h-2.4v-8.8h2.2c3.4 0 5.1 1.5 5.1 4.4 0 1.5-.4 2.6-1.3 3.3zM143.6 231.7h6.2v-1.9h-6.2v-3.4h6.9v-2.1h-9v12.9h9.2v-2.1h-7.1v-3.4zM162 233.9l-3.9-9.6h-2.4l5.1 12.9h2.5l5.1-12.9H166l-4 9.6zM176.3 231.7h6.2v-1.9h-6.2v-3.4h6.9v-2.1h-9v12.9h9.2v-2.1h-7.1v-3.4zM192.3 224.3h-2.2v12.9h8v-2.1h-5.8v-10.8zM210 224c-1.9 0-3.5.6-4.8 1.9-1.3 1.3-1.9 2.8-1.9 4.7 0 1.9.6 3.5 1.9 4.7 1.3 1.3 2.9 1.9 4.8 1.9s3.5-.6 4.8-1.9c1.3-1.3 1.9-2.8 1.9-4.7 0-1.9-.7-3.5-1.9-4.7-1.3-1.3-2.9-1.9-4.8-1.9zm3.2 9.9c-.9.9-2 1.4-3.2 1.4-1.3 0-2.3-.4-3.2-1.4-.9-.9-1.3-2-1.3-3.3 0-1.3.4-2.4 1.3-3.3.9-.9 1.9-1.4 3.2-1.4 1.3 0 2.4.4 3.2 1.4.9.9 1.3 2 1.3 3.3 0 1.4-.4 2.4-1.3 3.3zM227.8 224.3h-4.4v12.8h2.2v-3.8h2.3c1.9 0 3.3-.4 4.2-1.1.9-.7 1.4-1.9 1.4-3.4 0-1.6-.4-2.7-1.3-3.5-1.1-.6-2.5-1-4.4-1zm2.7 6.4c-.4.5-1.2.7-2.4.7h-2.5v-5.1h2.2c1.2 0 2 .2 2.6.5.6.4.8 1 .8 1.9 0 .9-.3 1.6-.7 2zM263.5 224.3h-4.4v12.8h4.3c2.5 0 4.3-.6 5.5-1.7 1.2-1.2 1.8-2.7 1.8-4.7s-.6-3.6-1.9-4.7c-1.2-1.1-3-1.7-5.3-1.7zm3.8 9.7c-.8.7-2 1.1-3.6 1.1h-2.4v-8.8h2.2c3.4 0 5.1 1.5 5.1 4.4-.1 1.5-.5 2.6-1.3 3.3zM279.5 231.7h6.2v-1.9h-6.2v-3.4h6.9v-2.1h-9v12.9h9.2v-2.1h-7.1v-3.4zM297.7 224.3h-4.4v12.8h2.2v-3.8h2.3c1.9 0 3.3-.4 4.2-1.1.9-.7 1.4-1.9 1.4-3.4 0-1.6-.4-2.7-1.3-3.5-1-.6-2.4-1-4.4-1zm2.7 6.4c-.4.5-1.2.7-2.5.7h-2.5v-5.1h2.2c1.2 0 2 .2 2.6.5.6.4.8 1 .8 1.9.1.9-.1 1.6-.6 2zM312 224.3h-2.2v12.9h8v-2.1H312v-10.8zM329.7 224c-1.9 0-3.5.6-4.8 1.9-1.3 1.3-1.9 2.8-1.9 4.7 0 1.9.6 3.5 1.9 4.7 1.3 1.3 2.9 1.9 4.8 1.9s3.5-.6 4.8-1.9c1.3-1.3 1.9-2.8 1.9-4.7 0-1.9-.6-3.5-1.9-4.7-1.3-1.3-2.9-1.9-4.8-1.9zm3.2 9.9c-.9.9-2 1.4-3.2 1.4-1.3 0-2.3-.4-3.2-1.4-.9-.9-1.3-2-1.3-3.3 0-1.3.4-2.4 1.3-3.3.9-.9 1.9-1.4 3.2-1.4 1.3 0 2.3.4 3.2 1.4.9.9 1.3 2 1.3 3.3 0 1.4-.4 2.4-1.3 3.3zM350.1 224.3l-3.5 5.9-3.5-5.9h-2.4l4.8 7.8v5.1h2.2v-5.1l4.8-7.8h-2.4zM112.7 230.7c0 1.4-1.2 2.6-2.6 2.6-1.4 0-2.6-1.2-2.6-2.6 0-1.4 1.2-2.6 2.6-2.6 1.4 0 2.6 1.2 2.6 2.6zM245.6 228.1c-1.4 0-2.6 1.2-2.6 2.6 0 1.4 1.2 2.6 2.6 2.6 1.4 0 2.6-1.2 2.6-2.6 0-1.4-1.2-2.6-2.6-2.6z"/></svg>