<?xml version="1.0" encoding="utf-8"?>
<!-- Generator: Adobe Illustrator 19.0.0, SVG Export Plug-In . SVG Version: 6.00 Build 0)  -->
<svg version="1.1" id="Calque_1" xmlns="http://www.w3.org/2000/svg" xmlns:xlink="http://www.w3.org/1999/xlink" x="0px" y="0px"
	 width="64px" height="64px" viewBox="-447 249 64 64" style="enable-background:new -447 249 64 64;" xml:space="preserve">
<style type="text/css">
 .st0{fill:#8ac742;}
</style>
<g id="XMLID_14_">
	<path id="XMLID_21_" class="st0" d="M-383.5,275.7L-383.5,275.7c-0.3-0.4-0.7-0.7-1.3-0.9l-5.5-1.8c-0.2,0-0.3-0.1-0.4-0.2
		c-0.1-0.1-0.2-0.2-0.3-0.4l-1-2.5c0,0,0-0.2,0-0.4c0-0.1,0-0.3,0.1-0.4l2.7-5.1c0.2-0.5,0.3-1,0.3-1.5c-0.1-0.5-0.3-1-0.7-1.4
		l-5.4-5.4l0,0l0,0c-0.4-0.4-0.9-0.6-1.4-0.7s-1,0-1.5,0.3l-5.1,2.6c-0.3,0.1-0.4,0.1-0.5,0.1s-0.3,0-0.5-0.1l-2.4-1l0,0
		c-0.2-0.1-0.3-0.2-0.4-0.3c-0.2-0.1-0.2-0.2-0.3-0.4l-1.7-5.5l0,0c-0.2-0.5-0.5-1-0.9-1.3c-0.5-0.2-1-0.4-1.5-0.4h-7.5
		c-0.5,0-1.1,0.2-1.5,0.5c-0.4,0.3-0.7,0.7-0.9,1.3l0,0l-1.7,5.5l0,0c0,0.2-0.1,0.3-0.2,0.4c-0.1,0.1-0.2,0.2-0.4,0.3l0,0l-2.5,1
		l0,0c-0.2,0-0.4,0-0.6,0c-0.1,0-0.3,0-0.4-0.1l-5.1-2.7c-0.5-0.3-1-0.3-1.5-0.3c-0.5,0.1-1,0.3-1.4,0.7l-5.4,5.4l0,0
		c-0.4,0.4-0.6,0.9-0.7,1.4s0,1,0.3,1.5l2.7,5.1c0,0.2,0,0.4,0,0.5s0,0.3-0.1,0.5l-1,2.5c-0.1,0.2-0.1,0.3-0.3,0.4
		c-0.1,0.1-0.2,0.1-0.4,0.2l-5.5,1.8c-0.5,0.2-1,0.5-1.3,0.9l0,0c-0.2,0.4-0.4,0.9-0.4,1.4v7.6c0,0.5,0.2,1,0.4,1.4v0.1
		c0.3,0.4,0.7,0.7,1.3,0.9l5.5,1.8c0.2,0,0.3,0.1,0.4,0.2c0.1,0.1,0.2,0.2,0.3,0.4l1,2.5c0.1,0,0.1,0.2,0.1,0.3s0,0.3-0.1,0.4
		l-2.7,5.2c-0.3,0.5-0.3,1-0.3,1.5c0.1,0.5,0.3,1,0.7,1.3l0,0l5.4,5.4c0.4,0.4,0.9,0.6,1.4,0.7s1,0,1.5-0.3l5.1-2.6
		c0.1-0.1,0.3-0.1,0.4-0.1s0.3,0,0.5,0.1l2.4,1l0,0c0.2,0.1,0.3,0.1,0.4,0.3c0.1,0.1,0.2,0.2,0.2,0.4l1.7,5.5l0,0
		c0.2,0.5,0.5,1,0.9,1.3s0.9,0.5,1.5,0.5h7.6c0.5,0,1.1-0.2,1.5-0.5s0.7-0.7,0.9-1.3l0,0l0,0l1.8-5.5c0.1-0.2,0.1-0.3,0.2-0.4
		c0.1-0.1,0.2-0.2,0.4-0.3l2.5-1c0.2-0.1,0.3-0.1,0.5-0.1c0.1,0,0.3,0,0.4,0.1l5.1,2.6c0.5,0.2,1,0.3,1.5,0.3c0.5-0.1,1-0.3,1.4-0.7
		l5.3-5.4c0.4-0.4,0.6-0.9,0.7-1.4c0.1-0.5,0-1-0.3-1.5l-2.7-5.1c0.2-0.1,0.2-0.2,0.2-0.4c0-0.1,0-0.3,0.1-0.5l1-2.4l0,0
		c0.1-0.2,0.2-0.3,0.3-0.4s0.2-0.2,0.4-0.2l5.5-1.8c0.5-0.2,1-0.5,1.3-0.9l0,0c0.3-0.4,0.5-0.9,0.5-1.5v-7.6
		C-383,276.7-383.2,276.2-383.5,275.7L-383.5,275.7z M-384.4,284.8c0,0.2-0.1,0.5-0.2,0.6l0,0c-0.1,0.2-0.3,0.3-0.5,0.4l-5.5,1.8
		c-0.4,0.1-0.7,0.3-0.9,0.5c-0.3,0.2-0.5,0.5-0.6,0.9l0,0l-1,2.4c-0.1,0.3-0.2,0.7-0.2,1.1s0.1,0.7,0.3,1l2.6,5.1
		c0.1,0.2,0.1,0.4,0.1,0.7c0,0.2-0.1,0.4-0.3,0.6l-5.4,5.3c-0.2,0.2-0.4,0.3-0.6,0.3c-0.2,0-0.4,0-0.7-0.1l-5.1-2.6
		c-0.3-0.2-0.7-0.3-1-0.3c-0.4,0-0.7,0-1.1,0.2l-2.5,1c-0.4,0.1-0.6,0.4-0.9,0.6c-0.2,0.3-0.4,0.6-0.5,0.9l-1.8,5.5l0,0
		c-0.1,0.2-0.2,0.4-0.4,0.5c-0.2,0.1-0.4,0.2-0.6,0.2h-7.6c-0.2,0-0.5-0.1-0.6-0.2c-0.2-0.1-0.3-0.3-0.4-0.5l0,0l-1.7-5.5
		c-0.1-0.4-0.3-0.7-0.5-0.9c-0.2-0.3-0.5-0.5-0.9-0.6l0,0l-2.4-1c-0.3-0.1-0.7-0.2-1.1-0.2c-0.4,0-0.7,0.1-1,0.3l-5.1,2.6
		c-0.2,0.1-0.4,0.1-0.7,0.1c-0.2,0-0.4-0.1-0.6-0.3l-5.4-5.3l0,0c-0.2-0.2-0.2-0.4-0.3-0.6c0-0.2,0-0.4,0.1-0.7l2.6-5.1
		c0.2-0.3,0.3-0.7,0.3-1c0-0.4-0.1-0.7-0.2-1.1l-1-2.5c-0.1-0.3-0.4-0.6-0.6-0.9c-0.3-0.2-0.6-0.4-0.9-0.5l-5.5-1.8
		c-0.2-0.1-0.4-0.2-0.5-0.4l0,0c-0.1-0.2-0.2-0.4-0.2-0.6v-7.6c0-0.2,0.1-0.5,0.2-0.6l0,0c0.1-0.2,0.3-0.3,0.5-0.4l5.5-1.8l0,0l0,0
		c0.4-0.1,0.7-0.3,0.9-0.5c0.3-0.2,0.5-0.5,0.6-0.9l1-2.5c0.1-0.3,0.2-0.7,0.2-1.1c0-0.4-0.1-0.7-0.3-1l-2.6-5.1
		c-0.1-0.2-0.1-0.4-0.1-0.7c0-0.2,0.1-0.4,0.3-0.6l0,0l0,0l5.4-5.4c0.2-0.2,0.4-0.3,0.6-0.3c0.2,0,0.4,0,0.7,0.1l5.1,2.7
		c0.3,0.2,0.7,0.3,1,0.3c0.4,0,0.7-0.1,1.1-0.2l2.5-1l0,0c0.3-0.1,0.6-0.3,0.9-0.6c0.2-0.3,0.4-0.6,0.5-0.9l0,0l1.7-5.5
		c0.1-0.2,0.2-0.4,0.4-0.5c0.2-0.1,0.4-0.2,0.6-0.2h7.5c0.2,0,0.5,0.1,0.6,0.2c0.2,0.1,0.3,0.3,0.4,0.5l0,0l1.7,5.5
		c0.1,0.4,0.3,0.7,0.5,0.9c0.2,0.3,0.5,0.5,0.9,0.6l0,0l2.4,1c0.3,0.1,0.7,0.2,1.1,0.2s0.7-0.1,1-0.3l5.1-2.7
		c0.2-0.1,0.4-0.1,0.7-0.1c0.2,0,0.4,0.1,0.6,0.3l0,0l5.4,5.4c0.2,0.2,0.3,0.4,0.3,0.6s0,0.4-0.1,0.7l-2.6,5.1
		c-0.2,0.3-0.3,0.7-0.3,1c0,0.4,0,0.7,0.2,1.1l1,2.5c0.1,0.3,0.4,0.6,0.6,0.9c0.3,0.2,0.6,0.4,0.9,0.5l5.5,1.8
		c0.2,0.1,0.4,0.2,0.5,0.4c0.1,0.2,0.2,0.4,0.2,0.6v7.7H-384.4z"/>
	<path id="XMLID_18_" class="st0" d="M-415,263.8c-4.7,0-9,1.9-12.1,5c-3.1,3.1-5,7.4-5,12.1c0,4.7,1.9,9,5,12.1s7.4,5,12.1,5
		s9-1.9,12.1-5s5-7.4,5-12.1c0-4.7-1.9-9-5-12.1C-406,265.8-410.3,263.8-415,263.8L-415,263.8z M-403.9,292.1
		c-2.8,2.8-6.8,4.6-11.1,4.6s-8.3-1.8-11.1-4.6c-2.8-2.8-4.6-6.8-4.6-11.1s1.8-8.3,4.6-11.1c2.8-2.8,6.8-4.6,11.1-4.6
		s8.3,1.8,11.1,4.6c2.8,2.8,4.6,6.8,4.6,11.1S-401,289.3-403.9,292.1L-403.9,292.1z"/>
	<path id="XMLID_15_" class="st0" d="M-415,273.9c-2,0-3.8,0.8-5.1,2.1l0,0l0,0c-1.3,1.3-2.1,3.1-2.1,5.1c0,1.9,0.8,3.7,2.1,5l0,0
		c1.3,1.3,3.1,2.1,5.1,2.1c1.9,0,3.7-0.8,5-2.1l0,0c1.3-1.3,2.1-3.1,2.1-5.1s-0.8-3.8-2.1-5.1C-411.2,274.6-413,273.9-415,273.9
		L-415,273.9z M-411,285L-411,285c-1.1,1.1-2.5,1.7-4,1.7c-1.6,0-3-0.6-4-1.7l0,0c-1-1-1.6-2.4-1.6-4s0.6-3,1.7-4l0,0
		c1-1,2.5-1.7,4-1.7c1.6,0,3,0.6,4,1.7c1,1,1.7,2.5,1.7,4C-409.3,282.6-409.9,284-411,285L-411,285z"/>
</g>
</svg>
