<?xml version="1.0" encoding="utf-8"?>
<!-- Generator: Adobe Illustrator 19.0.0, SVG Export Plug-In . SVG Version: 6.00 Build 0)  -->
<svg version="1.1" id="Calque_1" xmlns="http://www.w3.org/2000/svg" xmlns:xlink="http://www.w3.org/1999/xlink" x="0px" y="0px"
	 width="82px" height="76px" viewBox="0 0 82 76" style="enable-background:new 0 0 82 76;" xml:space="preserve">
<style type="text/css">
	.st0{fill:#FFFFFF;}
</style>
<path id="XMLID_2_" class="st0" d="M45.5,18.1c2.3,0.7,4.5,2,6.2,3.7c2.7,2.7,4.4,6.5,4.4,10.7c0,0.5-0.4,0.9-0.9,0.9H26.8
	c-0.5,0-0.9-0.4-0.9-0.9c0-4.2,1.7-7.9,4.4-10.7c1.7-1.7,3.8-3,6.1-3.7c-0.8-0.5-1.6-1-2.3-1.7c-1.7-1.7-2.8-4.1-2.8-6.8
	c0-2.7,1.1-5.1,2.8-6.8C35.9,1.1,38.3,0,41,0c2.7,0,5.1,1.1,6.8,2.8c1.7,1.7,2.8,4.1,2.8,6.8c0,2.7-1.1,5.1-2.8,6.8v0
	C47.1,17.1,46.4,17.7,45.5,18.1L45.5,18.1z M40.1,36.1c0-0.5,0.4-0.9,0.9-0.9c0.5,0,0.9,0.4,0.9,0.9v6.1c1.8,0.2,3.4,1,4.6,2.2l0,0
	c1.4,1.4,2.3,3.4,2.3,5.5c0,1.6-0.5,3.1-1.4,4.4l4.9,5c0.4,0.4,0.4,0.9,0,1.3C52,61,51.4,61,51,60.6l-4.8-4.9c-1.4,1.3-3.2,2-5.2,2
	c-1.9,0-3.7-0.7-5.1-1.9l-4.7,4.7c-0.4,0.4-0.9,0.4-1.3,0c-0.4-0.4-0.4-0.9,0-1.3l4.8-4.8c-0.9-1.3-1.5-2.9-1.5-4.6
	c0-2.2,0.9-4.1,2.3-5.5c1.2-1.2,2.8-2,4.6-2.2V36.1L40.1,36.1z M36.5,54L36.5,54L36.5,54l0.2,0.2l0,0c1.1,1.1,2.6,1.7,4.2,1.7
	c1.7,0,3.1-0.7,4.2-1.7c1.1-1.1,1.7-2.6,1.7-4.2c0-1.7-0.7-3.1-1.7-4.2C44.1,44.7,42.6,44,41,44h0c-1.6,0-3.1,0.7-4.2,1.7
	C35.7,46.8,35,48.3,35,50C35,51.5,35.6,52.9,36.5,54L36.5,54z M15.1,42.8c-2.7,0-5.1,1.1-6.8,2.8c-1.7,1.7-2.8,4.1-2.8,6.8
	c0,2.7,1.1,5.1,2.8,6.8c0.7,0.7,1.4,1.2,2.3,1.7c-2.3,0.7-4.5,2-6.1,3.7C1.7,67.4,0,71.2,0,75.4c0,0.5,0.4,0.9,0.9,0.9h28.4
	c0.5,0,0.9-0.4,0.9-0.9c0-4.2-1.7-7.9-4.4-10.7c-1.7-1.7-3.8-3-6.1-3.7c0.8-0.4,1.6-1,2.3-1.7v0c1.7-1.7,2.8-4.1,2.8-6.8
	c0-2.7-1.1-5.1-2.8-6.8C20.1,43.9,17.7,42.8,15.1,42.8L15.1,42.8z M20.6,46.9c1.4,1.4,2.3,3.4,2.3,5.5c0,2.2-0.9,4.1-2.3,5.5h0
	c-1.4,1.4-3.4,2.3-5.5,2.3h0c-2.2,0-4.1-0.9-5.5-2.3c-1.4-1.4-2.3-3.4-2.3-5.5c0-2.2,0.9-4.1,2.3-5.5c1.4-1.4,3.4-2.3,5.5-2.3
	C17.2,44.7,19.2,45.5,20.6,46.9L20.6,46.9z M24.5,66c2.2,2.2,3.6,5.2,3.9,8.5H1.8c0.2-3.3,1.7-6.3,3.9-8.5c2.4-2.4,5.7-3.9,9.4-3.9
	h0C18.8,62.1,22.1,63.6,24.5,66L24.5,66z M66.9,42.8c-2.7,0-5.1,1.1-6.8,2.8c-1.7,1.7-2.8,4.1-2.8,6.8c0,2.7,1.1,5.1,2.8,6.8
	c0.7,0.7,1.4,1.2,2.3,1.7c-2.3,0.7-4.4,2-6.1,3.7c-2.7,2.7-4.4,6.5-4.4,10.7c0,0.5,0.4,0.9,0.9,0.9h28.4c0.5,0,0.9-0.4,0.9-0.9
	c0-4.2-1.7-7.9-4.4-10.7c-1.7-1.7-3.8-3-6.2-3.7c0.8-0.4,1.6-1,2.3-1.7l0,0h0c1.7-1.7,2.8-4.1,2.8-6.8c0-2.7-1.1-5.1-2.8-6.8
	C72,43.9,69.6,42.8,66.9,42.8L66.9,42.8z M72.4,46.9c1.4,1.4,2.3,3.4,2.3,5.5c0,2.2-0.9,4.1-2.3,5.5h0c-1.4,1.4-3.4,2.3-5.5,2.3h0
	c-2.2,0-4.1-0.9-5.5-2.3c-1.4-1.4-2.3-3.4-2.3-5.5c0-2.2,0.9-4.1,2.3-5.5c1.4-1.4,3.4-2.3,5.5-2.3C69.1,44.7,71,45.5,72.4,46.9
	L72.4,46.9z M76.3,66c2.2,2.2,3.6,5.2,3.9,8.5H53.7c0.2-3.3,1.7-6.3,3.9-8.5c2.4-2.4,5.7-3.9,9.4-3.9h0C70.6,62.1,73.9,63.6,76.3,66
	L76.3,66z M41,17.4L41,17.4c2.2,0,4.1-0.9,5.5-2.3v0c1.4-1.4,2.3-3.4,2.3-5.5c0-2.2-0.9-4.1-2.3-5.5c-1.4-1.4-3.4-2.3-5.5-2.3
	c-2.2,0-4.1,0.9-5.5,2.3c-1.4,1.4-2.3,3.4-2.3,5.5s0.9,4.1,2.3,5.5C36.9,16.6,38.8,17.4,41,17.4L41,17.4z M50.4,23.1
	c-2.4-2.4-5.7-3.9-9.4-3.9h0c-3.7,0-7,1.5-9.4,3.9c-2.2,2.2-3.6,5.2-3.9,8.5h26.5C54,28.3,52.6,25.3,50.4,23.1L50.4,23.1z"/>
</svg>
