<?xml version="1.0" encoding="utf-8"?>
<!-- Generator: Adobe Illustrator 19.0.0, SVG Export Plug-In . SVG Version: 6.00 Build 0)  -->
<svg version="1.1" id="Calque_1" xmlns="http://www.w3.org/2000/svg" xmlns:xlink="http://www.w3.org/1999/xlink" x="0px" y="0px"
	 width="71px" height="64px" viewBox="-444 249 71 64" style="enable-background:new -444 249 71 64;" xml:space="preserve">
<style type="text/css">
 .st0{fill:#00abf5;}
</style>
<path id="XMLID_115_" class="st0" d="M-377,277.7c0.4,0,0.8-0.3,0.8-0.8v-5h2.5c0.4,0,0.8-0.4,0.8-0.8v-4.6c0-0.3-0.2-0.6-0.5-0.7
	l-34.8-16.7c-0.2-0.1-0.5-0.1-0.7,0l-34.7,16.7c-0.2,0.1-0.4,0.4-0.4,0.7l0,0v4.6c0,0.4,0.4,0.8,0.8,0.8h2.5v5
	c0,0.4,0.3,0.8,0.8,0.8h1.3v28.9h-4.6c-0.4,0-0.8,0.3-0.8,0.8v4.8c0,0.4,0.4,0.8,0.8,0.8h69.4c0.4,0,0.8-0.4,0.8-0.8v-4.8
	c0-0.4-0.4-0.8-0.8-0.8h-4.6v-28.9H-377L-377,277.7z M-442.4,270.3V267l33.9-16.3l33.9,16.3v3.3H-442.4L-442.4,270.3z M-415.8,276.1
	v-4.2h14.7v4.2H-415.8L-415.8,276.1z M-403.3,277.7v28.9h-10.4v-28.9H-403.3L-403.3,277.7z M-416.6,277.7h1.3v28.9h-9.8v-28.9h1.3
	c0.4,0,0.8-0.3,0.8-0.8v-5h5.6v5C-417.4,277.3-417,277.7-416.6,277.7L-416.6,277.7z M-401.7,277.7h1.3c0.4,0,0.8-0.3,0.8-0.8v-5h5.6
	v5c0,0.4,0.3,0.8,0.8,0.8h1.3v28.9h-9.8V277.7L-401.7,277.7z M-439.2,276.1v-4.2h14.7v4.2H-439.2L-439.2,276.1z M-426.7,277.7v28.9
	H-437v-28.9H-426.7L-426.7,277.7z M-374.6,308.2v3.3h-67.8v-3.3H-374.6L-374.6,308.2z M-390.3,306.6v-28.9h10.3v28.9H-390.3
	L-390.3,306.6z M-392.5,276.1v-4.2h14.7v4.2H-392.5L-392.5,276.1z"/>
</svg>
